<svg width="382" height="382" viewBox="0 0 382 382" fill="none" xmlns="http://www.w3.org/2000/svg">
<rect width="382" height="382" fill="#5026D9"/>
<path d="M97.1898 138.376C93.6225 138.376 90.7273 141.271 90.7273 144.838C90.7273 148.405 93.6225 151.301 97.1898 151.301C100.757 151.301 103.652 148.405 103.652 144.838C103.652 141.271 100.757 138.376 97.1898 138.376ZM128.21 138.376C124.642 138.376 121.747 141.271 121.747 144.838C121.747 148.405 124.642 151.301 128.21 151.301C131.777 151.301 134.672 148.405 134.672 144.838C134.672 141.271 131.777 138.376 128.21 138.376ZM112.7 87.9685C84.1356 87.9685 61 111.104 61 139.668C61 168.232 84.1356 191.368 112.7 191.368C141.264 191.368 164.399 168.232 164.399 139.668C164.399 111.104 141.264 87.9685 112.7 87.9685ZM112.7 181.028C89.9001 181.028 71.3399 162.468 71.3399 139.668C71.3399 138.169 71.4433 136.695 71.5984 135.248C83.7737 129.845 93.4932 119.867 98.5339 107.485C107.892 120.669 123.272 129.328 140.695 129.328C144.702 129.328 148.605 128.837 152.327 127.958C153.439 131.681 154.059 135.61 154.059 139.668C154.059 162.468 135.499 181.028 112.7 181.028Z" fill="white"/>
<path d="M149.517 97.6876L105.277 83.2722L105.275 83.2718C104.164 82.9097 102.971 83.5164 102.609 84.6274L101.299 88.6493L101.299 88.648C100.936 89.7574 101.544 90.9522 102.654 91.3138L146.894 105.729L146.893 105.729C148.002 106.09 149.197 105.483 149.559 104.373L150.869 100.351C151.231 99.2402 150.623 98.0467 149.514 97.6851L149.517 97.6876ZM163.322 62.1462L143.213 55.5937L145.179 49.5609L150.206 51.199L150.205 51.1985C150.759 51.3791 151.357 51.0749 151.538 50.5207L153.504 44.4879C153.685 43.9324 153.38 43.3354 152.826 43.1548L147.799 41.5167L149.437 36.4894C149.618 35.9339 149.313 35.3369 148.759 35.1563L142.726 33.1906L142.725 33.1902C142.169 33.0091 141.573 33.3125 141.392 33.868L139.754 38.8953L134.726 37.2572L134.725 37.2568C134.169 37.0758 133.573 37.3791 133.392 37.9346L131.426 43.9674C131.246 44.5217 131.549 45.1182 132.104 45.2992L137.132 46.9373L135.166 52.9701L115.057 46.4177L115.057 46.4164C112.835 45.6936 110.449 46.9099 109.727 49.1311C109.595 49.5358 109.525 49.9593 109.519 50.3857L109.921 80.3325L147.486 92.5725L165.453 68.6114L165.454 68.6101C166.806 66.7053 166.359 64.0643 164.455 62.7111C164.106 62.4626 163.724 62.27 163.318 62.1377L163.322 62.1462Z" fill="url(#paint0_linear)"/>
<defs>
<linearGradient id="paint0_linear" x1="107.106" y1="57.1742" x2="163.405" y2="75.519" gradientUnits="userSpaceOnUse">
<stop stop-color="#F46F24"/>
<stop offset="1" stop-color="#F44D24"/>
</linearGradient>
</defs>
</svg>
