<svg width="24" height="24" viewBox="0 0 24 24" fill="none" xmlns="http://www.w3.org/2000/svg">
<path fill-rule="evenodd" clip-rule="evenodd" d="M10.575 1.49988H12.775L12.8322 3.33314H14.9749V5.53305H12.901L13.0017 8.02371C13.0419 7.97636 13.0833 7.92992 13.126 7.88457C15.1291 5.75564 18.099 4.62273 20.2913 6.44968C22.4912 8.28294 22.4912 12.4994 19.4622 14.9381C17.7464 16.3195 16.2095 17.6512 16.2852 19.599L19.3672 20.0158V22.7657H3.98284V20.0158L7.06477 19.599C7.1405 17.6512 5.60361 16.3195 3.88778 14.9381C0.858761 12.4994 0.858761 8.28294 3.05867 6.44968C5.25101 4.62273 8.22092 5.75564 10.224 7.88457C10.2667 7.92992 10.3081 7.97636 10.3483 8.02371L10.449 5.53305H8.37513V3.33314H10.5178L10.575 1.49988ZM8.50274 9.92303C9.84713 12.1251 10.0251 14.6994 10.0251 15.8188C9.35122 15.82 6.81093 14.7025 5.46598 12.8678C4.49771 11.547 4.24524 9.5873 5.07526 8.8265C5.90528 8.06571 7.66249 8.54672 8.50274 9.92303ZM14.8473 9.92303C13.5029 12.1251 13.3249 14.6994 13.3249 15.8188C13.9988 15.82 16.5391 14.7025 17.884 12.8678C18.8523 11.547 19.1048 9.5873 18.2747 8.8265C17.4447 8.06571 15.6875 8.54672 14.8473 9.92303Z" fill="currentColor"/>
</svg>
