<svg width="24" height="24" viewBox="0 0 24 24" fill="none" xmlns="http://www.w3.org/2000/svg">
<path d="M15.1683 6.63187C15.1683 7.68518 14.7198 8.63375 14.0035 9.29712L15.8492 10.6V12.9874H14.0423C14.1295 14.0941 14.8395 15.2016 15.7583 16.1677C16.7334 17.1929 17.9065 18.0197 18.6856 18.4649L18.8 18.5303V22.0668H4.5V18.5303L4.61437 18.4649C5.39346 18.0197 6.5666 17.1929 7.54168 16.1677C8.46048 15.2016 9.17053 14.0941 9.25766 12.9874H7.45079V10.6L9.16975 9.38659C8.39525 8.72055 7.90476 7.73349 7.90476 6.63187C7.90476 4.62611 9.53075 3.00012 11.5365 3.00012C13.5423 3.00012 15.1683 4.62611 15.1683 6.63187Z" fill="currentColor"/>
</svg>
