<svg width="16" height="16" viewBox="0 0 16 16" fill="none" xmlns="http://www.w3.org/2000/svg">
    <path d="M6 8V10H8V8H6ZM16 10V8H14V10H16ZM0 6V8H2V6H0ZM16 6V4H14V6H16ZM16 14V12H14V14H16ZM8 8H10V6H8V8ZM0 16H2V14H0V16ZM4 16H6V14H4V16ZM12 0H10V2H12V0ZM4 0H2V2H4V0ZM8 16H10V14H8V16ZM0 2V4H2V2H0ZM0 10V12H2V10H0ZM8 0H6V2H8V0ZM12 16H14V14H12V16ZM2 12V14H4V12H2ZM10 12V14H12V12H10ZM8 6V4H6V6H8ZM12 12H14V10H12V12ZM4 8H2V10H4V8ZM12 8H14V6H12V8ZM16 0H14V2H16V0ZM4 4H2V6H4V4ZM12 2V4H14V2H12ZM6 12V14H8V12H6ZM4 10V12H6V10H4ZM8 10V12H10V10H8ZM6 6H4V8H6V6ZM10 4V2H8V4H10ZM6 4V2H4V4H6ZM10 6H12V4H10V6ZM10 10H12V8H10V10Z" fill="#747A86"/>
</svg>
