<svg width="24" height="24" viewBox="0 0 24 24" fill="none" xmlns="http://www.w3.org/2000/svg">
<path fill-rule="evenodd" clip-rule="evenodd" d="M2.55566 2.55554H6.12344V6.13307H9.68951V2.55554H13.2572V6.13325H9.69094V9.71051H6.12321V6.13325H2.55566V2.55554ZM16.8274 6.13307H13.2595V9.71051H16.8274V6.13307ZM6.12344 13.2884H9.68951V9.71075H13.2572V13.2886H9.69094V16.8665H6.12321V13.2886H2.55566V9.71075H6.12344V13.2884ZM16.8274 13.2884H13.2595V16.8665H16.8274V13.2884ZM20.4447 2.55554H16.877V6.13325H20.4447V2.55554ZM16.877 9.71075H20.4447V13.2886H16.877V9.71075ZM2.55566 16.8666H6.12344V20.4446H2.55566V16.8666ZM20.4447 16.8666H16.877V20.4446H20.4447V16.8666ZM9.68951 16.8666H13.2572V20.4446H9.68951V16.8666Z" fill="currentColor"/>
</svg>
