<svg width="24" height="24" viewBox="0 0 24 24" fill="none" xmlns="http://www.w3.org/2000/svg">
<path d="M13.3138 11.8999L16.8488 8.36394C16.9443 8.27169 17.0205 8.16135 17.0729 8.03935C17.1253 7.91734 17.1529 7.78612 17.1541 7.65334C17.1552 7.52056 17.1299 7.38888 17.0796 7.26599C17.0294 7.14309 16.9551 7.03144 16.8612 6.93755C16.7673 6.84365 16.6557 6.7694 16.5328 6.71912C16.4099 6.66884 16.2782 6.64354 16.1454 6.64469C16.0126 6.64584 15.8814 6.67343 15.7594 6.72584C15.6374 6.77825 15.5271 6.85443 15.4348 6.94994L11.8988 10.4849L8.36382 6.94994C8.27157 6.85443 8.16123 6.77825 8.03922 6.72584C7.91722 6.67343 7.786 6.64584 7.65322 6.64469C7.52044 6.64354 7.38876 6.66884 7.26587 6.71912C7.14297 6.7694 7.03132 6.84365 6.93742 6.93755C6.84353 7.03144 6.76928 7.14309 6.719 7.26599C6.66872 7.38888 6.64342 7.52056 6.64457 7.65334C6.64572 7.78612 6.67331 7.91734 6.72572 8.03935C6.77813 8.16135 6.85431 8.27169 6.94982 8.36394L10.4848 11.8989L6.94982 15.4349C6.85431 15.5272 6.77813 15.6375 6.72572 15.7595C6.67331 15.8815 6.64572 16.0128 6.64457 16.1455C6.64342 16.2783 6.66872 16.41 6.719 16.5329C6.76928 16.6558 6.84353 16.7674 6.93742 16.8613C7.03132 16.9552 7.14297 17.0295 7.26587 17.0798C7.38876 17.13 7.52044 17.1553 7.65322 17.1542C7.786 17.153 7.91722 17.1255 8.03922 17.073C8.16123 17.0206 8.27157 16.9445 8.36382 16.8489L11.8988 13.3139L15.4348 16.8489C15.5271 16.9445 15.6374 17.0206 15.7594 17.073C15.8814 17.1255 16.0126 17.153 16.1454 17.1542C16.2782 17.1553 16.4099 17.13 16.5328 17.0798C16.6557 17.0295 16.7673 16.9552 16.8612 16.8613C16.9551 16.7674 17.0294 16.6558 17.0796 16.5329C17.1299 16.41 17.1552 16.2783 17.1541 16.1455C17.1529 16.0128 17.1253 15.8815 17.0729 15.7595C17.0205 15.6375 16.9443 15.5272 16.8488 15.4349L13.3138 11.8989V11.8999Z" fill="currentColor"/>
</svg>
