<svg width="24" height="24" viewBox="0 0 24 24" fill="none" xmlns="http://www.w3.org/2000/svg">
<g>
<path d="M4.77564 9.10588L5.64764 14.9999H18.3836L19.2506 9.01988L15.7576 12.0399L12.0026 7.21288L8.09364 12.0239L4.77564 9.10588ZM14.8136 7.56888L14.7356 7.63588L14.8766 7.64988L16.0436 9.14888L17.4806 7.90688L17.6206 7.92088L17.5586 7.83888L19.9716 5.75288C20.1259 5.61979 20.3171 5.53699 20.5197 5.51556C20.7223 5.49413 20.9266 5.5351 21.1053 5.63298C21.284 5.73085 21.4285 5.88097 21.5196 6.06324C21.6106 6.24551 21.6438 6.45123 21.6146 6.65288L20.1146 16.9999H3.92164L2.39864 6.69988C2.36839 6.49711 2.40119 6.28995 2.49259 6.10645C2.584 5.92294 2.7296 5.77197 2.90966 5.67397C3.08973 5.57597 3.29557 5.53568 3.4993 5.55856C3.70303 5.58144 3.8948 5.66638 4.04864 5.80188L6.34964 7.82688L6.29964 7.88688L6.40864 7.87888L7.85264 9.14888L9.06464 7.65588L9.17364 7.64688L9.11364 7.59488L11.2446 4.97588C11.3396 4.85919 11.4596 4.76542 11.5958 4.70155C11.732 4.63768 11.8808 4.60536 12.0312 4.60699C12.1817 4.60863 12.3298 4.64417 12.4645 4.71099C12.5993 4.7778 12.7173 4.87415 12.8096 4.99288L14.8146 7.56888H14.8136ZM3.99964 17.9999H19.9996V18.9999C19.9996 19.2651 19.8943 19.5194 19.7068 19.707C19.5192 19.8945 19.2649 19.9999 18.9996 19.9999H4.99964C4.73443 19.9999 4.48007 19.8945 4.29254 19.707C4.105 19.5194 3.99964 19.2651 3.99964 18.9999V17.9999Z" fill="currentColor"/>
</g>
</svg>
