<svg width="24" height="24" viewBox="0 0 24 24" fill="none" xmlns="http://www.w3.org/2000/svg">
<g>
<path d="M17.8817 19.2969C16.1229 20.4125 14.0824 21.0033 11.9997 20.9999C6.60766 20.9999 2.12166 17.1199 1.18066 11.9999C1.61069 9.67066 2.78229 7.54284 4.52066 5.93394L1.39166 2.80794L2.80666 1.39294L22.6057 21.1929L21.1907 22.6069L17.8807 19.2969H17.8817ZM5.93466 7.34994C4.57567 8.58553 3.62898 10.2087 3.22266 11.9999C3.53496 13.3664 4.16193 14.6411 5.05367 15.7225C5.94541 16.804 7.07729 17.6623 8.35922 18.2293C9.64114 18.7962 11.0377 19.056 12.4378 18.9881C13.8378 18.9201 15.2026 18.5263 16.4237 17.8379L14.3957 15.8099C13.5324 16.3538 12.5099 16.588 11.4959 16.4744C10.4819 16.3607 9.53671 15.9058 8.81523 15.1844C8.09376 14.4629 7.63889 13.5177 7.52523 12.5037C7.41156 11.4897 7.64585 10.4673 8.18966 9.60394L5.93466 7.34994ZM12.9137 14.3279L9.67166 11.0859C9.49373 11.5389 9.45185 12.0339 9.55117 12.5103C9.65049 12.9867 9.88668 13.4237 10.2308 13.7678C10.5749 14.1119 11.0119 14.3481 11.4883 14.4474C11.9647 14.5468 12.4597 14.5049 12.9127 14.3269L12.9137 14.3279ZM20.8067 16.5919L19.3757 15.1619C20.0441 14.2092 20.5201 13.1351 20.7767 11.9999C20.5049 10.8097 19.9939 9.68709 19.2748 8.70044C18.5557 7.71379 17.6435 6.88367 16.5935 6.26055C15.5436 5.63743 14.378 5.23431 13.1674 5.07571C11.9568 4.9171 10.7267 5.00632 9.55166 5.33794L7.97366 3.75994C9.22066 3.26994 10.5797 2.99994 11.9997 2.99994C17.3917 2.99994 21.8777 6.87994 22.8187 11.9999C22.5122 13.6656 21.8235 15.2375 20.8067 16.5919ZM11.7227 7.50794C12.3592 7.46861 12.9968 7.56501 13.5932 7.79076C14.1896 8.01651 14.7313 8.36646 15.1822 8.81739C15.6332 9.26833 15.9831 9.80997 16.2088 10.4064C16.4346 11.0028 16.531 11.6404 16.4917 12.2769L11.7217 7.50794H11.7227Z" fill="currentColor"/>
</g>
</svg>
