<svg width="24" height="24" viewBox="0 0 24 24" fill="none" xmlns="http://www.w3.org/2000/svg">
<path fill-rule="evenodd" clip-rule="evenodd" d="M10.7415 1.33325H12.9415L12.9988 3.16651H15.1414V5.36643H13.0675L13.1682 7.85708C13.2084 7.80973 13.2498 7.76329 13.2925 7.71794C15.2956 5.58902 18.2655 4.45611 20.4578 6.28306C22.6577 8.11632 22.6577 12.3328 19.6287 14.7715C17.9129 16.1529 16.376 17.4846 16.4517 19.4324L19.5337 19.8492V22.5991H4.14934V19.8492L7.23127 19.4324C7.307 17.4846 5.77011 16.1529 4.05428 14.7715C1.02526 12.3328 1.02526 8.11632 3.22518 6.28306C5.41752 4.45611 8.38742 5.58902 10.3905 7.71794C10.4332 7.76329 10.4746 7.80973 10.5148 7.85708L10.6155 5.36643H8.54164V3.16651H10.6843L10.7415 1.33325ZM8.66924 9.75641C10.0136 11.9585 10.1916 14.5327 10.1916 15.6522C9.51772 15.6534 6.97743 14.5358 5.63248 12.7012C4.66422 11.3803 4.41174 9.42067 5.24176 8.65987C6.07179 7.89909 7.82899 8.3801 8.66924 9.75641ZM15.0138 9.75641C13.6694 11.9585 13.4914 14.5327 13.4914 15.6522C14.1653 15.6534 16.7056 14.5358 18.0505 12.7012C19.0188 11.3803 19.2713 9.42067 18.4412 8.65987C17.6112 7.89909 15.854 8.3801 15.0138 9.75641Z" fill="currentColor"/>
</svg>
