<svg width="24" height="24" viewBox="0 0 24 24" fill="none" xmlns="http://www.w3.org/2000/svg">
<path fill-rule="evenodd" clip-rule="evenodd" d="M10.742 1.33337H12.9419L12.9992 3.16664H15.1419V5.36655H13.068L13.1687 7.8572C13.2089 7.80985 13.2503 7.76342 13.293 7.71807C15.2961 5.58914 18.266 4.45623 20.4583 6.28318C22.6582 8.11644 22.6582 12.3329 19.6292 14.7716C17.9134 16.153 16.3765 17.4847 16.4522 19.4325L19.5342 19.8493V22.5992H4.14983V19.8493L7.23176 19.4325C7.30749 17.4847 5.7706 16.153 4.05477 14.7716C1.02575 12.3329 1.02575 8.11644 3.22566 6.28318C5.41801 4.45623 8.38791 5.58914 10.391 7.71807C10.4337 7.76342 10.4751 7.80985 10.5153 7.8572L10.616 5.36655H8.54212V3.16664H10.6847L10.742 1.33337ZM8.66973 9.75653C10.0141 11.9586 10.1921 14.5329 10.1921 15.6523C9.51821 15.6535 6.97792 14.536 5.63297 12.7013C4.66471 11.3805 4.41223 9.42079 5.24225 8.66C6.07228 7.89921 7.82948 8.38022 8.66973 9.75653ZM15.0143 9.75653C13.6699 11.9586 13.4919 14.5329 13.4919 15.6523C14.1658 15.6535 16.7061 14.536 18.051 12.7013C19.0193 11.3805 19.2718 9.42079 18.4417 8.66C17.6117 7.89921 15.8545 8.38022 15.0143 9.75653Z" fill="currentColor"/>
</svg>
