<svg width="24" height="24" viewBox="0 0 24 24" fill="none" xmlns="http://www.w3.org/2000/svg">
<path d="M9.9732 18H11.0002V13H13.0002V18H14.0272C14.1592 16.798 14.7722 15.806 15.7672 14.723C15.8802 14.601 16.5992 13.856 16.6842 13.75C17.3905 12.8676 17.8332 11.8037 17.9613 10.6807C18.0895 9.55781 17.8978 8.42151 17.4085 7.40271C16.9191 6.38392 16.1519 5.52406 15.1953 4.92215C14.2387 4.32025 13.1315 4.00078 12.0013 4.00054C10.8711 4.0003 9.76374 4.31929 8.80686 4.92079C7.84999 5.52228 7.08246 6.38182 6.59267 7.4004C6.10288 8.41899 5.91074 9.55521 6.0384 10.6782C6.16605 11.8012 6.60829 12.8653 7.3142 13.748C7.4002 13.855 8.1212 14.601 8.2322 14.722C9.2282 15.806 9.8412 16.798 9.9732 18V18ZM10.0002 20V21H14.0002V20H10.0002ZM5.7542 15C4.81239 13.8233 4.22215 12.4044 4.05147 10.9069C3.88078 9.40944 4.1366 7.89418 4.78946 6.53572C5.44231 5.17725 6.46564 4.03085 7.74156 3.22856C9.01748 2.42627 10.4941 2.00074 12.0013 2.00098C13.5085 2.00122 14.985 2.42722 16.2606 3.22992C17.5363 4.03262 18.5592 5.17935 19.2117 6.53803C19.8641 7.8967 20.1194 9.41204 19.9482 10.9095C19.7771 12.4069 19.1864 13.8256 18.2442 15.002C17.6242 15.774 16.0002 17 16.0002 18.5V21C16.0002 21.5304 15.7895 22.0391 15.4144 22.4142C15.0393 22.7893 14.5306 23 14.0002 23H10.0002C9.46977 23 8.96106 22.7893 8.58599 22.4142C8.21092 22.0391 8.0002 21.5304 8.0002 21V18.5C8.0002 17 6.3752 15.774 5.7542 15Z" fill="currentColor"/>
</svg>
