<svg width="24" height="24" viewBox="0 0 24 24" fill="none" xmlns="http://www.w3.org/2000/svg">
<path d="M9.59859 4.88936C10.2235 4.64894 10.667 4.04291 10.667 3.33329C10.667 2.41282 9.9208 1.66663 9.00033 1.66663C8.07985 1.66663 7.33366 2.41282 7.33366 3.33329C7.33366 4.18391 7.97089 4.88569 8.79402 4.98732L8.05075 11L4.46773 7.88798C4.79535 7.58363 5.00033 7.14907 5.00033 6.66663C5.00033 5.74615 4.25413 4.99996 3.33366 4.99996C2.41318 4.99996 1.66699 5.74615 1.66699 6.66663C1.66699 7.5871 2.41318 8.3333 3.33366 8.3333C3.4957 8.3333 3.65233 8.31017 3.80045 8.26705L5.66699 14.6666L7.5972 17.8252L5.66699 18.1666V20.6666L18.3593 20.6666V18.1666L16.4043 17.8238L18.3337 14.6666L20.2002 8.26705C20.3483 8.31017 20.505 8.3333 20.667 8.3333C21.5875 8.3333 22.3337 7.5871 22.3337 6.66663C22.3337 5.74615 21.5875 4.99996 20.667 4.99996C19.7465 4.99996 19.0003 5.74615 19.0003 6.66663C19.0003 7.14907 19.2053 7.58363 19.5329 7.88798L15.9499 11L15.2066 4.98732C16.0298 4.88569 16.667 4.18391 16.667 3.33329C16.667 2.41282 15.9208 1.66663 15.0003 1.66663C14.0799 1.66663 13.3337 2.41282 13.3337 3.33329C13.3337 4.04291 13.7771 4.64894 14.4021 4.88936L12.0003 10.3333L9.59859 4.88936Z" fill="currentColor"/>
</svg>
