<svg width="21" height="24" viewBox="0 0 21 24" fill="none" xmlns="http://www.w3.org/2000/svg">
<path d="M20.5525 16.9823C19.6488 16.0092 17.9579 14.5453 17.9579 9.75C17.9579 6.10781 15.4096 3.19219 11.9735 2.47688V1.5C11.9735 0.671719 11.3037 0 10.4776 0C9.6516 0 8.98178 0.671719 8.98178 1.5V2.47688C5.54568 3.19219 2.99738 6.10781 2.99738 9.75C2.99738 14.5453 1.30646 16.0092 0.402766 16.9823C0.122115 17.2847 -0.00230641 17.6461 3.23397e-05 18C0.0051776 18.7687 0.607172 19.5 1.50151 19.5H19.4538C20.3481 19.5 20.9506 18.7687 20.9553 18C20.9576 17.6461 20.8332 17.2842 20.5525 16.9823ZM3.15875 17.25C4.15132 15.9389 5.2365 13.7658 5.24164 9.77719C5.24164 9.76781 5.23884 9.75937 5.23884 9.75C5.23884 6.85031 7.58414 4.5 10.4776 4.5C13.3711 4.5 15.7165 6.85031 15.7165 9.75C15.7165 9.75937 15.7136 9.76781 15.7136 9.77719C15.7188 13.7662 16.804 15.9394 17.7965 17.25H3.15875ZM10.4776 24C12.1297 24 13.4698 22.657 13.4698 21H7.48544C7.48544 22.657 8.82555 24 10.4776 24Z" fill="currentColor"/>
</svg>
