<svg width="24" height="24" viewBox="0 0 24 24" fill="none" xmlns="http://www.w3.org/2000/svg">
<path d="M15.0314 6.63484C15.0314 7.59239 14.6238 8.45474 13.9726 9.0578L15.6505 10.2422V12.4126H14.0079C14.0871 13.4187 14.7326 14.4255 15.5678 15.3037C16.4543 16.2358 17.5208 16.9875 18.229 17.3922L18.333 17.4516V20.6666H5.33301V17.4516L5.43698 17.3922C6.14524 16.9875 7.21173 16.2358 8.09817 15.3037C8.93344 14.4255 9.57894 13.4187 9.65816 12.4126H8.01555V10.2422L9.57823 9.13913C8.87414 8.53365 8.42825 7.63632 8.42825 6.63484C8.42825 4.81142 9.90642 3.33325 11.7298 3.33325C13.5533 3.33325 15.0314 4.81142 15.0314 6.63484Z" fill="currentColor"/>
</svg>
