<svg width="24" height="24" viewBox="0 0 24 24" fill="none" xmlns="http://www.w3.org/2000/svg">
<path d="M23.2061 10.3503V13.4866C23.2061 13.9222 23.0536 14.2925 22.7487 14.5974C22.4437 14.9024 22.0735 15.0548 21.6379 15.0548H14.8424V21.8503C14.8424 22.2859 14.69 22.6561 14.385 22.9611C14.0801 23.266 13.7098 23.4185 13.2742 23.4185H10.1379C9.70227 23.4185 9.332 23.266 9.02708 22.9611C8.72215 22.6561 8.56969 22.2859 8.56969 21.8503V15.0548H1.77424C1.33863 15.0548 0.968365 14.9024 0.663441 14.5974C0.358517 14.2925 0.206055 13.9222 0.206055 13.4866V10.3503C0.206055 9.91467 0.358517 9.5444 0.663441 9.23948C0.968365 8.93455 1.33863 8.78209 1.77424 8.78209H8.56969V1.98663C8.56969 1.55103 8.72215 1.18076 9.02708 0.875839C9.332 0.570915 9.70227 0.418452 10.1379 0.418452H13.2742C13.7098 0.418452 14.0801 0.570915 14.385 0.875839C14.69 1.18076 14.8424 1.55103 14.8424 1.98663V8.78209H21.6379C22.0735 8.78209 22.4437 8.93455 22.7487 9.23948C23.0536 9.5444 23.2061 9.91467 23.2061 10.3503Z" fill="currentColor"/>
</svg>
