<svg width="24" height="24" viewBox="0 0 24 24" fill="none" xmlns="http://www.w3.org/2000/svg">
<path d="M3 7.0003L11.445 1.3703C11.6093 1.26066 11.8025 1.20215 12 1.20215C12.1976 1.20215 12.3907 1.26066 12.555 1.3703L21 7.0003V21.0003C21 21.2655 20.8947 21.5199 20.7071 21.7074C20.5196 21.8949 20.2652 22.0003 20 22.0003H4C3.73478 22.0003 3.48043 21.8949 3.29289 21.7074C3.10536 21.5199 3 21.2655 3 21.0003V7.0003ZM12 11.0003C12.5304 11.0003 13.0391 10.7896 13.4142 10.4145C13.7893 10.0394 14 9.53073 14 9.0003C14 8.46987 13.7893 7.96116 13.4142 7.58609C13.0391 7.21101 12.5304 7.0003 12 7.0003C11.4696 7.0003 10.9609 7.21101 10.5858 7.58609C10.2107 7.96116 10 8.46987 10 9.0003C10 9.53073 10.2107 10.0394 10.5858 10.4145C10.9609 10.7896 11.4696 11.0003 12 11.0003Z" fill="currentColor"/>
</svg>
