<svg width="26" height="24" viewBox="0 0 26 24" fill="none" xmlns="http://www.w3.org/2000/svg">
<path d="M3.1377 7.0003L11.9698 1.3703C12.1416 1.26066 12.3436 1.20215 12.5502 1.20215C12.7568 1.20215 12.9588 1.26066 13.1306 1.3703L21.9627 7.0003V21.0003C21.9627 21.2655 21.8525 21.5199 21.6564 21.7074C21.4603 21.8949 21.1942 22.0003 20.9169 22.0003H4.18353C3.90616 22.0003 3.64014 21.8949 3.44401 21.7074C3.24788 21.5199 3.1377 21.2655 3.1377 21.0003V7.0003ZM12.5502 11.0003C13.1049 11.0003 13.637 10.7896 14.0292 10.4145C14.4215 10.0394 14.6419 9.53073 14.6419 9.0003C14.6419 8.46987 14.4215 7.96116 14.0292 7.58609C13.637 7.21101 13.1049 7.0003 12.5502 7.0003C11.9955 7.0003 11.4634 7.21101 11.0712 7.58609C10.6789 7.96116 10.4585 8.46987 10.4585 9.0003C10.4585 9.53073 10.6789 10.0394 11.0712 10.4145C11.4634 10.7896 11.9955 11.0003 12.5502 11.0003Z" fill="currentColor"/>
</svg>
