<svg width="24" height="24" viewBox="0 0 24 24" fill="none" xmlns="http://www.w3.org/2000/svg">
<path d="M18.03 16.6168L22.313 20.8988L20.898 22.3138L16.616 18.0308C15.0228 19.308 13.041 20.0027 10.999 19.9998C6.03102 19.9998 1.99902 15.9678 1.99902 10.9998C1.99902 6.03176 6.03102 1.99976 10.999 1.99976C15.967 1.99976 19.999 6.03176 19.999 10.9998C20.0019 13.0418 19.3072 15.0235 18.03 16.6168ZM16.024 15.8748C17.2931 14.5696 18.0019 12.8202 17.999 10.9998C17.999 7.13176 14.866 3.99976 10.999 3.99976C7.13102 3.99976 3.99902 7.13176 3.99902 10.9998C3.99902 14.8668 7.13102 17.9998 10.999 17.9998C12.8195 18.0026 14.5689 17.2939 15.874 16.0248L16.024 15.8748V15.8748Z" fill="currentColor"/>
</svg>
