<svg width="24" height="24" viewBox="0 0 24 24" fill="none" xmlns="http://www.w3.org/2000/svg">
<g>
<path d="M2.21276 14.0598C1.92517 12.7015 1.92517 11.298 2.21276 9.93976C3.32276 10.0698 4.29276 9.70276 4.60876 8.93876C4.92576 8.17376 4.50076 7.22876 3.62276 6.53576C4.3798 5.37209 5.37209 4.3798 6.53576 3.62276C7.22776 4.49976 8.17376 4.92576 8.93876 4.60876C9.70376 4.29176 10.0708 3.32276 9.93976 2.21276C11.298 1.92517 12.7015 1.92517 14.0598 2.21276C13.9298 3.32276 14.2968 4.29276 15.0608 4.60876C15.8258 4.92576 16.7708 4.50076 17.4638 3.62276C18.6274 4.3798 19.6197 5.37209 20.3768 6.53576C19.4998 7.22776 19.0738 8.17376 19.3908 8.93876C19.7078 9.70376 20.6768 10.0708 21.7868 9.93976C22.0744 11.298 22.0744 12.7015 21.7868 14.0598C20.6768 13.9298 19.7068 14.2968 19.3908 15.0608C19.0738 15.8258 19.4988 16.7708 20.3768 17.4638C19.6197 18.6274 18.6274 19.6197 17.4638 20.3768C16.7718 19.4998 15.8258 19.0738 15.0608 19.3908C14.2958 19.7078 13.9288 20.6768 14.0598 21.7868C12.7015 22.0744 11.298 22.0744 9.93976 21.7868C10.0698 20.6768 9.70276 19.7068 8.93876 19.3908C8.17376 19.0738 7.22876 19.4988 6.53576 20.3768C5.37209 19.6197 4.3798 18.6274 3.62276 17.4638C4.49976 16.7718 4.92576 15.8258 4.60876 15.0608C4.29176 14.2958 3.32276 13.9288 2.21276 14.0598ZM3.99976 12.2098C5.09976 12.5148 6.00676 13.2118 6.45676 14.2958C6.90576 15.3808 6.75676 16.5158 6.19476 17.5078C6.29076 17.6098 6.38976 17.7088 6.49176 17.8048C7.48476 17.2428 8.61876 17.0948 9.70376 17.5428C10.7878 17.9928 11.4848 18.8998 11.7898 19.9998C11.9298 20.0038 12.0698 20.0038 12.2098 19.9998C12.5148 18.8998 13.2118 17.9928 14.2958 17.5428C15.3808 17.0938 16.5158 17.2428 17.5078 17.8048C17.6098 17.7088 17.7088 17.6098 17.8048 17.5078C17.2428 16.5148 17.0948 15.3808 17.5428 14.2958C17.9928 13.2118 18.8998 12.5148 19.9998 12.2098C20.0038 12.0698 20.0038 11.9298 19.9998 11.7898C18.8998 11.4848 17.9928 10.7878 17.5428 9.70376C17.0938 8.61876 17.2428 7.48376 17.8048 6.49176C17.7084 6.39016 17.6094 6.29112 17.5078 6.19476C16.5148 6.75676 15.3808 6.90476 14.2958 6.45676C13.2118 6.00676 12.5148 5.09976 12.2098 3.99976C12.0698 3.99606 11.9297 3.99606 11.7898 3.99976C11.4848 5.09976 10.7878 6.00676 9.70376 6.45676C8.61876 6.90576 7.48376 6.75676 6.49176 6.19476C6.38976 6.29076 6.29076 6.38976 6.19476 6.49176C6.75676 7.48476 6.90476 8.61876 6.45676 9.70376C6.00676 10.7878 5.09976 11.4848 3.99976 11.7898C3.99576 11.9298 3.99576 12.0698 3.99976 12.2098ZM11.9998 14.9998C11.2041 14.9998 10.4411 14.6837 9.87844 14.1211C9.31583 13.5585 8.99976 12.7954 8.99976 11.9998C8.99976 11.2041 9.31583 10.4411 9.87844 9.87844C10.4411 9.31583 11.2041 8.99976 11.9998 8.99976C12.7954 8.99976 13.5585 9.31583 14.1211 9.87844C14.6837 10.4411 14.9998 11.2041 14.9998 11.9998C14.9998 12.7954 14.6837 13.5585 14.1211 14.1211C13.5585 14.6837 12.7954 14.9998 11.9998 14.9998ZM11.9998 12.9998C12.265 12.9998 12.5193 12.8944 12.7069 12.7069C12.8944 12.5193 12.9998 12.265 12.9998 11.9998C12.9998 11.7345 12.8944 11.4802 12.7069 11.2927C12.5193 11.1051 12.265 10.9998 11.9998 10.9998C11.7345 10.9998 11.4802 11.1051 11.2927 11.2927C11.1051 11.4802 10.9998 11.7345 10.9998 11.9998C10.9998 12.265 11.1051 12.5193 11.2927 12.7069C11.4802 12.8944 11.7345 12.9998 11.9998 12.9998Z" fill="currentColor"/>
</g>
</svg>
