<svg width="24" height="24" viewBox="0 0 24 24" fill="none" xmlns="http://www.w3.org/2000/svg">
<path d="M9.95405 2.20973C11.303 1.92686 12.6958 1.92618 14.045 2.20773C14.1349 2.80101 14.3574 3.36642 14.6958 3.86191C15.0343 4.3574 15.4801 4.77023 16 5.06973C16.5196 5.37026 17.1002 5.54979 17.6987 5.59498C18.2973 5.64017 18.8983 5.54984 19.457 5.33073C20.3753 6.35879 21.0709 7.56577 21.5 8.87573C21.0314 9.25031 20.6532 9.72568 20.3935 10.2665C20.1338 10.8074 19.9993 11.3998 20 11.9997C20 13.2637 20.586 14.3907 21.502 15.1237C21.0704 16.4326 20.3739 17.6386 19.456 18.6667C18.8974 18.4478 18.2966 18.3575 17.6983 18.4027C17.0999 18.4479 16.5195 18.6273 16 18.9277C15.4805 19.2271 15.0351 19.6397 14.6968 20.1348C14.3585 20.6299 14.1361 21.1949 14.046 21.7877C12.6973 22.0713 11.3044 22.0726 9.95505 21.7917C9.86559 21.1979 9.64335 20.6319 9.30487 20.1359C8.96639 19.6398 8.52038 19.2265 8.00005 18.9267C7.48041 18.6264 6.89975 18.447 6.30124 18.402C5.70272 18.357 5.10176 18.4475 4.54305 18.6667C3.62465 17.6384 2.92905 16.431 2.50005 15.1207C2.96844 14.7464 3.34651 14.2713 3.60618 13.7308C3.86586 13.1904 4.00048 12.5983 4.00005 11.9987C4.00054 11.3986 3.86575 10.8061 3.60571 10.2652C3.34568 9.72439 2.96707 9.24911 2.49805 8.87473C2.92972 7.56585 3.62616 6.35983 4.54405 5.33173C5.1027 5.55068 5.70352 5.64092 6.30184 5.59574C6.90017 5.55055 7.48062 5.3711 8.00005 5.07073C8.51959 4.77132 8.96503 4.35875 9.30331 3.86363C9.64158 3.36852 9.864 2.80357 9.95405 2.21073V2.20973ZM12 14.9997C12.7957 14.9997 13.5588 14.6837 14.1214 14.121C14.684 13.5584 15 12.7954 15 11.9997C15 11.2041 14.684 10.441 14.1214 9.87841C13.5588 9.3158 12.7957 8.99973 12 8.99973C11.2044 8.99973 10.4413 9.3158 9.87873 9.87841C9.31612 10.441 9.00005 11.2041 9.00005 11.9997C9.00005 12.7954 9.31612 13.5584 9.87873 14.121C10.4413 14.6837 11.2044 14.9997 12 14.9997Z" fill="currentColor"/>
</svg>
