<svg width="24" height="24" viewBox="0 0 24 24" fill="none" xmlns="http://www.w3.org/2000/svg">
<path d="M20.0829 15.1999L21.2849 15.9209C21.359 15.9653 21.4204 16.0282 21.463 16.1034C21.5056 16.1786 21.528 16.2635 21.528 16.3499C21.528 16.4364 21.5056 16.5213 21.463 16.5965C21.4204 16.6717 21.359 16.7346 21.2849 16.7789L12.5149 22.0409C12.3593 22.1344 12.1813 22.1838 11.9999 22.1838C11.8184 22.1838 11.6404 22.1344 11.4849 22.0409L2.71485 16.7789C2.6407 16.7346 2.57932 16.6717 2.5367 16.5965C2.49408 16.5213 2.47168 16.4364 2.47168 16.3499C2.47168 16.2635 2.49408 16.1786 2.5367 16.1034C2.57932 16.0282 2.6407 15.9653 2.71485 15.9209L3.91685 15.1999L11.9999 20.0499L20.0829 15.1999V15.1999ZM20.0829 10.4999L21.2849 11.2209C21.359 11.2653 21.4204 11.3282 21.463 11.4034C21.5056 11.4786 21.528 11.5635 21.528 11.6499C21.528 11.7364 21.5056 11.8213 21.463 11.8965C21.4204 11.9717 21.359 12.0346 21.2849 12.0789L11.9999 17.6499L2.71485 12.0789C2.6407 12.0346 2.57932 11.9717 2.5367 11.8965C2.49408 11.8213 2.47168 11.7364 2.47168 11.6499C2.47168 11.5635 2.49408 11.4786 2.5367 11.4034C2.57932 11.3282 2.6407 11.2653 2.71485 11.2209L3.91685 10.4999L11.9999 15.3499L20.0829 10.4999ZM12.5139 1.30895L21.2849 6.57095C21.359 6.61534 21.4204 6.6782 21.463 6.75338C21.5056 6.82857 21.528 6.91352 21.528 6.99995C21.528 7.08637 21.5056 7.17132 21.463 7.24651C21.4204 7.3217 21.359 7.38455 21.2849 7.42895L11.9999 12.9999L2.71485 7.42895C2.6407 7.38455 2.57932 7.3217 2.5367 7.24651C2.49408 7.17132 2.47168 7.08637 2.47168 6.99995C2.47168 6.91352 2.49408 6.82857 2.5367 6.75338C2.57932 6.6782 2.6407 6.61534 2.71485 6.57095L11.4849 1.30895C11.6404 1.2155 11.8184 1.16614 11.9999 1.16614C12.1813 1.16614 12.3593 1.2155 12.5149 1.30895H12.5139ZM11.9999 3.33195L5.88685 6.99995L11.9999 10.6679L18.1129 6.99995L11.9999 3.33195Z" fill="currentColor"/>
</svg>
