<svg width="300" height="168" viewBox="0 0 300 168" fill="none" xmlns="http://www.w3.org/2000/svg">
<rect width="299" height="167" rx="16" fill="#06C2E8"/>
<path d="M86.6872 167.08C89.6376 156.393 90.7381 145.382 89.4209 134.462C86.8369 113.04 70.3257 98.287 53.6184 83.3589C46.1072 76.6476 38.5563 69.9008 32.2135 62.4967C27.5413 57.0427 23.2978 51.2096 19.0795 45.4113C13.0591 37.1358 7.09023 28.931 0 22V151.08C0 159.917 7.16344 167.08 16 167.08H86.6872Z" fill="#FFBF2A"/>
<path d="M299.304 48.3128C292.34 47.6177 285.435 46.2709 278.61 44.0718C252.265 35.582 226.617 21.2528 210 0H283.304C292.14 0 299.304 7.16344 299.304 16V48.3128Z" fill="#FF6085"/>
</svg>
