<svg width="84" height="84" viewBox="0 0 84 84" fill="none" xmlns="http://www.w3.org/2000/svg">
<mask id="path-1-outside-1" maskUnits="userSpaceOnUse" x="0" y="0" width="84" height="84" fill="black">
<rect fill="white" width="84" height="84"/>
<path d="M41.9965 6H32.9938V15.0035H41.9965V6ZM6 14.9993V24.0028H15.0026V14.9993H6ZM24.0053 6H15.0026V15.0035H24.0053V6ZM33.0079 42V51.0035H42.0105V42H33.0079ZM6 32.9993V42.0028H15.0026V32.9993H6ZM59.9947 6H50.9921V15.0035H59.9947V6ZM78 6H68.9974V15.0035H78V6ZM24.0053 42H15.0026V51.0035H24.0053V42ZM77.993 68.9965V59.993H68.9903V68.9965H77.993ZM77.993 50.9894V41.9859H68.9903V50.9894H77.993ZM59.9947 78H68.9974V68.9965H59.9947V78ZM78 32.9993V23.9958H68.9974V32.9993H78ZM24.0053 78H33.0079V68.9965H24.0053V78ZM6 78H15.0026V68.9965H6V78ZM41.9965 78H50.9991V68.9965H41.9965V78ZM6 50.9993V60.0028H15.0026V50.9993H6ZM50.9963 24V14.9965H41.9937V24H50.9963ZM41.9937 42.007H50.9963V33.0035H41.9937V42.007ZM32.991 60.0141V69.0176H41.9937V60.0141H32.991ZM50.9963 51.0105H59.9989V42.007H50.9963V51.0105ZM50.9963 33.0106H59.9989V24.007H50.9963V33.0106ZM50.9963 60.0113V69.0148H59.9989V60.0113H50.9963ZM15.0026 60V69.0035H24.0053V60H15.0026ZM33.0079 24V14.9965H24.0053V24H33.0079ZM60.0046 60H69.0072V50.9965H60.0046V60ZM41.9993 32.9993V23.9958H32.9967V32.9993H41.9993ZM60.0046 14.9993V24.0028H69.0072V14.9993H60.0046ZM41.9993 50.9993V60.0028H51.0019V50.9993H41.9993ZM32.9967 32.9993H24.0053V42.0028H33.0079L32.9967 32.9993ZM59.9933 42.0028H68.996V32.9993H59.9933V42.0028ZM24.0053 24H15.0026V33.0035H24.0053V24ZM24.0053 50.9993V60.0028H33.0079V50.9993H24.0053Z"/>
</mask>
<path d="M41.9965 6H32.9938V15.0035H41.9965V6ZM6 14.9993V24.0028H15.0026V14.9993H6ZM24.0053 6H15.0026V15.0035H24.0053V6ZM33.0079 42V51.0035H42.0105V42H33.0079ZM6 32.9993V42.0028H15.0026V32.9993H6ZM59.9947 6H50.9921V15.0035H59.9947V6ZM78 6H68.9974V15.0035H78V6ZM24.0053 42H15.0026V51.0035H24.0053V42ZM77.993 68.9965V59.993H68.9903V68.9965H77.993ZM77.993 50.9894V41.9859H68.9903V50.9894H77.993ZM59.9947 78H68.9974V68.9965H59.9947V78ZM78 32.9993V23.9958H68.9974V32.9993H78ZM24.0053 78H33.0079V68.9965H24.0053V78ZM6 78H15.0026V68.9965H6V78ZM41.9965 78H50.9991V68.9965H41.9965V78ZM6 50.9993V60.0028H15.0026V50.9993H6ZM50.9963 24V14.9965H41.9937V24H50.9963ZM41.9937 42.007H50.9963V33.0035H41.9937V42.007ZM32.991 60.0141V69.0176H41.9937V60.0141H32.991ZM50.9963 51.0105H59.9989V42.007H50.9963V51.0105ZM50.9963 33.0106H59.9989V24.007H50.9963V33.0106ZM50.9963 60.0113V69.0148H59.9989V60.0113H50.9963ZM15.0026 60V69.0035H24.0053V60H15.0026ZM33.0079 24V14.9965H24.0053V24H33.0079ZM60.0046 60H69.0072V50.9965H60.0046V60ZM41.9993 32.9993V23.9958H32.9967V32.9993H41.9993ZM60.0046 14.9993V24.0028H69.0072V14.9993H60.0046ZM41.9993 50.9993V60.0028H51.0019V50.9993H41.9993ZM32.9967 32.9993H24.0053V42.0028H33.0079L32.9967 32.9993ZM59.9933 42.0028H68.996V32.9993H59.9933V42.0028ZM24.0053 24H15.0026V33.0035H24.0053V24ZM24.0053 50.9993V60.0028H33.0079V50.9993H24.0053Z" fill="url(#paint0_linear)"/>
<path d="M41.9965 6H32.9938V15.0035H41.9965V6ZM6 14.9993V24.0028H15.0026V14.9993H6ZM24.0053 6H15.0026V15.0035H24.0053V6ZM33.0079 42V51.0035H42.0105V42H33.0079ZM6 32.9993V42.0028H15.0026V32.9993H6ZM59.9947 6H50.9921V15.0035H59.9947V6ZM78 6H68.9974V15.0035H78V6ZM24.0053 42H15.0026V51.0035H24.0053V42ZM77.993 68.9965V59.993H68.9903V68.9965H77.993ZM77.993 50.9894V41.9859H68.9903V50.9894H77.993ZM59.9947 78H68.9974V68.9965H59.9947V78ZM78 32.9993V23.9958H68.9974V32.9993H78ZM24.0053 78H33.0079V68.9965H24.0053V78ZM6 78H15.0026V68.9965H6V78ZM41.9965 78H50.9991V68.9965H41.9965V78ZM6 50.9993V60.0028H15.0026V50.9993H6ZM50.9963 24V14.9965H41.9937V24H50.9963ZM41.9937 42.007H50.9963V33.0035H41.9937V42.007ZM32.991 60.0141V69.0176H41.9937V60.0141H32.991ZM50.9963 51.0105H59.9989V42.007H50.9963V51.0105ZM50.9963 33.0106H59.9989V24.007H50.9963V33.0106ZM50.9963 60.0113V69.0148H59.9989V60.0113H50.9963ZM15.0026 60V69.0035H24.0053V60H15.0026ZM33.0079 24V14.9965H24.0053V24H33.0079ZM60.0046 60H69.0072V50.9965H60.0046V60ZM41.9993 32.9993V23.9958H32.9967V32.9993H41.9993ZM60.0046 14.9993V24.0028H69.0072V14.9993H60.0046ZM41.9993 50.9993V60.0028H51.0019V50.9993H41.9993ZM32.9967 32.9993H24.0053V42.0028H33.0079L32.9967 32.9993ZM59.9933 42.0028H68.996V32.9993H59.9933V42.0028ZM24.0053 24H15.0026V33.0035H24.0053V24ZM24.0053 50.9993V60.0028H33.0079V50.9993H24.0053Z" stroke="#2F3849" stroke-width="12" mask="url(#path-1-outside-1)"/>
<defs>
<linearGradient id="paint0_linear" x1="6" y1="42" x2="78" y2="42" gradientUnits="userSpaceOnUse">
<stop stop-color="#5AD9AB"/>
<stop offset="1" stop-color="#26D95C"/>
</linearGradient>
</defs>
</svg>
