<svg width="85" height="76" viewBox="0 0 85 76" fill="none" xmlns="http://www.w3.org/2000/svg">
<path d="M31.0712 73C36.0038 73 40.2491 70.0343 42.1026 65.7862C43.9561 70.0343 48.2014 73 53.1339 73C57.5978 73 61.4419 70.5667 63.5075 66.9951C69.9828 66.8129 75.188 61.5192 75.188 55C75.188 54.9837 75.188 54.9673 75.1879 54.951C78.7989 52.6467 81.2051 48.6111 81.2051 44C81.2051 40.0885 79.4611 36.6288 76.7555 34.2684C77.0346 33.2381 77.1937 32.145 77.1937 31C77.1937 26.3876 74.7857 22.3562 71.1765 20.0529C71.1766 20.0353 71.1766 20.0177 71.1766 20C71.1766 14.5445 67.2012 10.0281 61.9971 9.15325C60.2092 5.51994 56.4838 3 52.1311 3C47.6835 3 43.8432 5.63182 42.1026 9.42729C40.3619 5.63182 36.5216 3 32.0741 3C27.7213 3 23.9959 5.51995 22.208 9.15325C17.004 10.0281 13.0285 14.5445 13.0285 20C13.0285 20.0177 13.0285 20.0353 13.0286 20.053C9.41945 22.3562 7.0114 26.3876 7.0114 31C7.0114 32.1445 7.17002 33.2377 7.44918 34.2688C4.74389 36.6291 3 40.0887 3 44C3 48.6111 5.40628 52.6467 9.0172 54.951C9.01713 54.9673 9.01709 54.9837 9.01709 55C9.01709 61.5192 14.2223 66.813 20.6977 66.9952C22.7633 70.5667 26.6073 73 31.0712 73ZM48.6608 32.9217C48.6598 32.9214 48.6588 32.9212 48.6578 32.9209C48.6587 32.9212 48.6596 32.9214 48.6605 32.9216L48.6608 32.9217Z" fill="url(#paint0_linear)" stroke="#2F3849" stroke-width="6"/>
<defs>
<linearGradient id="paint0_linear" x1="6" y1="38" x2="78.2051" y2="38" gradientUnits="userSpaceOnUse">
<stop stop-color="#5AD9AB"/>
<stop offset="1" stop-color="#26D95C"/>
</linearGradient>
</defs>
</svg>
