<svg width="75" height="84" viewBox="0 0 75 84" fill="none" xmlns="http://www.w3.org/2000/svg">
<path d="M64.4988 25.5H64.4965H44.9965V24.75H47.6215C48.7155 24.75 49.7647 24.3154 50.5383 23.5418L48.417 21.4205L50.5383 23.5418C51.3119 22.7682 51.7465 21.719 51.7465 20.625V13.875C51.7465 12.781 51.3119 11.7318 50.5383 10.9582L48.4302 13.0663L50.5383 10.9582C49.7647 10.1846 48.7155 9.75 47.6215 9.75H44.9965V7.125C44.9965 6.03098 44.5619 4.98177 43.7883 4.20818C43.0147 3.4346 41.9655 3 40.8715 3H34.1215C33.0275 3 31.9783 3.4346 31.2047 4.20818L33.326 6.3295L31.2047 4.20819C30.4311 4.98177 29.9965 6.03098 29.9965 7.125V9.75H27.3715C26.2775 9.75 25.2283 10.1846 24.4547 10.9582L26.576 13.0795L24.4547 10.9582C23.6811 11.7318 23.2465 12.781 23.2465 13.875V20.625C23.2465 21.719 23.6811 22.7682 24.4547 23.5418L26.576 21.4205L24.4547 23.5418C25.2283 24.3154 26.2775 24.75 27.3715 24.75H29.9965V25.5H10.4965H10.4942C9.31833 25.5009 8.15918 25.7783 7.11028 26.3097C6.06139 26.8412 5.15214 27.6118 4.45594 28.5593C3.75974 29.5069 3.2961 30.6049 3.10243 31.7647C2.90876 32.9245 2.9905 34.1136 3.34105 35.2359L3.35254 35.2727L3.36497 35.3092L13.6418 65.4677L13.8233 66H12.7465C11.3541 66 10.0188 66.5531 9.0342 67.5377C8.04962 68.5223 7.49651 69.8576 7.49651 71.25V75.75C7.49651 77.1424 8.04962 78.4778 9.03421 79.4623C10.0188 80.4469 11.3541 81 12.7465 81H62.2465C63.6389 81 64.9743 80.4469 65.9588 79.4623C66.9434 78.4777 67.4965 77.1424 67.4965 75.75V71.25C67.4965 69.8576 66.9434 68.5223 65.9588 67.5377C64.9743 66.5531 63.6389 66 62.2465 66H61.1698L61.3512 65.4677L71.628 35.3092L71.6405 35.2727L71.652 35.2359C72.0025 34.1136 72.0843 32.9245 71.8906 31.7647C71.6969 30.6049 71.2333 29.5069 70.5371 28.5593C69.8409 27.6118 68.9316 26.8412 67.8827 26.3097C66.8338 25.7783 65.6747 25.5009 64.4988 25.5Z" fill="url(#paint0_linear)" stroke="#2F3849" stroke-width="6"/>
<defs>
<linearGradient id="paint0_linear" x1="6" y1="42" x2="68.993" y2="42" gradientUnits="userSpaceOnUse">
<stop stop-color="#5AD9AB"/>
<stop offset="1" stop-color="#26D95C"/>
</linearGradient>
</defs>
</svg>
