<svg width="1808" height="200" viewBox="0 0 1808 200" fill="none" xmlns="http://www.w3.org/2000/svg">
<path d="M260 200H0L130 0L260 200Z" fill="#182235"/>
<path d="M481.92 97.0467C478.919 62.5546 453.554 43 418.369 43C380.73 43 351 67.9864 351 114.429C351 160.667 379.911 185.857 418.369 185.857C459.282 185.857 480.01 157.612 481.92 133.983L443.462 133.712C441.553 145.594 433.098 152.995 419.187 152.995C400.709 152.995 390.003 139.958 390.003 114.429C390.003 90.2569 400.368 75.8626 419.46 75.8626C434.052 75.8626 442.371 84.4177 443.462 97.0467H481.92Z" fill="#182235"/>
<path d="M516.401 183.956H554.314V129.638H604.499V183.956H642.412V44.9011H604.499V99.2194H554.314V44.9011H516.401V183.956Z" fill="#182235"/>
<path d="M677.694 183.956H778.066V153.538H715.607V129.638H773.157V99.2194H715.607V75.3194H778.339V44.9011H677.694V183.956Z" fill="#182235"/>
<path d="M889.702 88.3558H925.978C925.841 61.0608 904.703 43 870.882 43C837.675 43 814.219 60.7892 814.423 87.2694C814.355 108.997 829.492 121.083 854.245 126.379L868.155 129.366C883.701 132.761 889.02 136.631 889.156 142.946C889.02 149.803 882.747 154.624 870.609 154.624C856.086 154.624 847.494 147.834 846.88 135.07H810.877C811.014 169.969 834.743 185.586 871.155 185.586C906.544 185.586 927.75 170.376 927.887 142.946C927.75 121.762 915.068 106.892 884.247 100.306L872.792 97.8615C859.563 95.0777 853.631 91.2075 853.972 84.5535C854.04 78.4427 859.154 73.9614 870.882 73.9614C883.156 73.9614 888.952 79.3254 889.702 88.3558Z" fill="#182235"/>
<path d="M1034.87 88.3558H1071.14C1071.01 61.0608 1049.87 43 1016.05 43C982.842 43 959.385 60.7892 959.59 87.2694C959.522 108.997 974.659 121.083 999.411 126.379L1013.32 129.366C1028.87 132.761 1034.19 136.631 1034.32 142.946C1034.19 149.803 1027.91 154.624 1015.78 154.624C1001.25 154.624 992.661 147.834 992.047 135.07H956.044C956.18 169.969 979.91 185.586 1016.32 185.586C1051.71 185.586 1072.92 170.376 1073.05 142.946C1072.92 121.762 1060.23 106.892 1029.41 100.306L1017.96 97.8615C1004.73 95.0777 998.798 91.2075 999.139 84.5535C999.207 78.4427 1004.32 73.9614 1016.05 73.9614C1028.32 73.9614 1034.12 79.3254 1034.87 88.3558Z" fill="#182235"/>
<path d="M1147.03 164.945H1177.58V129.909H1212.77V99.491H1177.58V64.4557H1147.03V99.491H1111.85V129.909H1147.03V164.945Z" fill="#182235"/>
<path d="M1251.36 75.3194H1293.36V183.956H1330.73V75.3194H1372.73V44.9011H1251.36V75.3194Z" fill="#182235"/>
<path d="M1404.28 183.956H1504.65V153.538H1442.19V129.638H1499.74V99.2194H1442.19V75.3194H1504.92V44.9011H1404.28V183.956Z" fill="#182235"/>
<path d="M1654.7 44.9011H1616.78V117.688H1615.69L1566.05 44.9011H1533.87V183.956H1571.78V110.898H1572.6L1623.06 183.956H1654.7V44.9011Z" fill="#182235"/>
<path d="M1686.09 75.3194H1728.1V183.956H1765.46V75.3194H1807.47V44.9011H1686.09V75.3194Z" fill="#182235"/>
</svg>
