<svg width="100" height="144" viewBox="0 0 100 144" fill="none" xmlns="http://www.w3.org/2000/svg">
<path fill-rule="evenodd" clip-rule="evenodd" d="M56.2321 84.6858C57.1187 87.1126 58.7211 89.1299 61.2178 90.4424C68.9414 94.5021 75.3687 91.6378 80.3238 85.6745C87.5588 76.9666 91.5992 61.5623 91.9213 52.2812C91.9371 51.8417 91.6337 51.4517 91.2464 51.4097C90.8577 51.3664 90.5299 51.6874 90.5142 52.1269C90.202 61.1351 86.2946 76.0921 79.2735 84.5438C74.7236 90.0192 68.8405 92.7274 61.747 88.9977C59.6352 87.8893 58.2878 86.182 57.5335 84.132C58.6794 83.6285 59.7957 83.094 60.8799 82.5286C63.8726 80.9669 70.7936 75.2932 74.0884 69.3913C76.4508 65.1568 76.9495 60.8108 73.4357 57.5932C71.4823 55.8052 69.1543 55.7599 66.8054 56.9943C63.575 58.689 60.2801 62.88 58.0682 67.8068C56.2261 71.9083 55.1341 76.5094 55.4005 80.5603C55.4607 81.4505 55.5823 82.3153 55.7756 83.1438C39.7498 89.7764 18.7285 90.1602 2.50801 83.2322C2.13799 83.0759 1.74173 83.2795 1.62414 83.6928C1.50516 84.1047 1.7103 84.567 2.07921 84.7248C18.5647 91.7644 39.9168 91.399 56.2321 84.6858ZM57.0876 82.5821C58.1633 82.1061 59.2123 81.6018 60.2321 81.0693C63.0994 79.5717 69.7294 74.1363 72.8859 68.4813C74.8235 65.0112 75.4709 61.4508 72.5911 58.8135C71.0781 57.4295 69.2753 57.4974 67.4554 58.4506C65.4546 59.5016 63.4458 61.6007 61.7134 64.2334C59.0833 68.2303 57.0956 73.4605 56.8053 78.2385C56.7126 79.7521 56.7937 81.22 57.0876 82.5821Z" fill="#2F3849" stroke="#2F3849" stroke-width="2"/>
<path fill-rule="evenodd" clip-rule="evenodd" d="M26.7619 74.3958C20.4887 80.3595 10.7415 83.7527 2.35253 84.5221C1.96673 84.5574 1.69723 84.9446 1.75075 85.3853C1.80427 85.8261 2.16041 86.1565 2.54621 86.1212C11.1975 85.3288 21.2369 81.7972 27.7044 75.6497C27.994 75.3748 28.0184 74.8699 27.7577 74.5233C27.4984 74.1779 27.0515 74.1209 26.7619 74.3958Z" fill="#2F3849" stroke="#2F3849" stroke-width="2"/>
<path fill-rule="evenodd" clip-rule="evenodd" d="M2.49591 86.522C9.25428 88.1278 16.6822 94.5861 20.8175 101.033C21.0468 101.391 21.4792 101.488 21.7814 101.248C22.085 101.009 22.1451 100.526 21.9159 100.168C17.5835 93.4147 9.78386 86.6819 2.70328 84.9993C2.32815 84.9093 1.97607 85.1794 1.91809 85.5992C1.86147 86.0203 2.11969 86.4335 2.49591 86.522Z" fill="#2F3849" stroke="#2F3849" stroke-width="2"/>
</svg>
