<svg width="59" height="64" viewBox="0 0 59 64" fill="none" xmlns="http://www.w3.org/2000/svg">
<path fill-rule="evenodd" clip-rule="evenodd" d="M19.545 59.7248C13.9672 58.1595 8.12738 57.3699 2.46239 56.6465C1.24224 56.4948 0.109408 57.3411 0.0222544 58.5334C-0.152053 59.7265 0.719995 60.8177 1.85299 60.9693C7.34368 61.6657 13.0082 62.4108 18.3245 63.9177C19.4575 64.2445 20.6782 63.5717 21.0268 62.4143C21.3754 61.2578 20.678 60.0525 19.545 59.7248Z" fill="#182235"/>
<path fill-rule="evenodd" clip-rule="evenodd" d="M36.4508 37.5327C27.4739 28.372 17.3641 20.3905 8.56156 10.984C7.77718 10.1055 6.38272 10.0584 5.51118 10.8785C4.63964 11.6995 4.55283 13.08 5.42437 13.9585C14.2269 23.392 24.3367 31.3997 33.3136 40.5875C34.1851 41.4451 35.5792 41.4573 36.4508 40.6136C37.2351 39.7708 37.3223 38.3903 36.4508 37.5327Z" fill="#182235"/>
<path fill-rule="evenodd" clip-rule="evenodd" d="M53.2731 2.29716C53.5346 7.54033 53.7955 12.7835 54.057 18.0275C54.057 19.2285 55.1033 20.1558 56.3235 20.0974C57.5436 20.0382 58.4146 19.0159 58.4146 17.814C58.1532 12.5621 57.8922 7.31112 57.6308 2.0601C57.5436 0.859124 56.4976 -0.0620911 55.2775 0.00327422C54.1445 0.0686395 53.1859 1.09706 53.2731 2.29716Z" fill="#182235"/>
</svg>
