<svg width="324" height="367" viewBox="0 0 324 367" fill="none" xmlns="http://www.w3.org/2000/svg">
<path d="M151.734 51.8055C151.734 66.8306 145.372 80.3617 135.208 89.8244L161.395 108.409V142.465H135.759C136.995 158.251 147.07 174.05 160.106 187.83C173.941 202.455 190.586 214.25 201.64 220.6L203.263 221.532V271.979H0.367188V221.532L1.98991 220.6C13.044 214.25 29.6891 202.455 43.524 187.83C56.5605 174.05 66.635 158.251 67.8713 142.465H42.2345V108.409L66.6239 91.1006C55.6349 81.5999 48.6757 67.5198 48.6757 51.8055C48.6757 23.1941 71.746 0 100.205 0C128.663 0 151.734 23.1941 151.734 51.8055Z" fill="#34364C"/>
<path d="M271.835 178.827C271.835 193.852 265.473 207.383 255.309 216.846L281.497 235.43V269.487H255.86C257.097 285.273 267.171 301.071 280.208 314.852C294.042 329.476 310.688 341.271 321.742 347.622L323.364 348.554V399H120.469V348.554L122.091 347.622C133.146 341.271 149.791 329.476 163.626 314.852C176.662 301.071 186.737 285.273 187.973 269.487H162.336V235.43L186.725 218.122C175.736 208.621 168.777 194.541 168.777 178.827C168.777 150.216 191.848 127.021 220.306 127.021C248.765 127.021 271.835 150.216 271.835 178.827Z" fill="#34364C"/>
</svg>
