<svg width="224" height="15" viewBox="0 0 224 15" fill="none" xmlns="http://www.w3.org/2000/svg">
<path d="M21.8938 6.31988L21.8939 6.31987C36.0467 5.01815 50.2841 4.19611 64.5215 3.40176C70.5284 3.06638 76.6267 2.74808 82.788 2.45709C66.1869 2.3678 49.5882 2.30253 33.0548 2.23753L32.4566 2.23518L32.4527 2.23516V2.23514C32.1998 2.23095 31.9561 2.16636 31.7658 2.04777C31.5805 1.93229 31.4008 1.73198 31.4032 1.45612L31.4033 1.45476C31.4069 1.18055 31.589 0.982706 31.7757 0.869066C31.968 0.752033 32.2134 0.689378 32.4679 0.689378H32.4692C33.9036 0.695167 35.3385 0.700935 36.7738 0.706706C64.2177 0.817042 91.816 0.928 119.314 1.16877C146.752 0.586684 174.486 0.99066 200.463 3.41625M21.8938 6.31988L200.434 3.72552M21.8938 6.31988C20.2362 6.47283 18.5636 6.60524 16.8877 6.73791C14.0783 6.96031 11.2596 7.18346 8.48641 7.50533M21.8938 6.31988L8.48641 7.50533M200.463 3.41625L200.434 3.72552M200.463 3.41625C200.463 3.41623 200.463 3.41622 200.463 3.41621L200.434 3.72552M200.463 3.41625C200.697 3.43781 200.872 3.46705 200.997 3.49531C201.059 3.50942 201.111 3.52366 201.153 3.53721C201.18 3.54607 201.218 3.55942 201.254 3.57824M200.434 3.72552C200.88 3.76661 201.08 3.83513 201.114 3.85568M201.254 3.57824C201.25 3.57668 201.247 3.57514 201.244 3.5736L201.114 3.85568M201.254 3.57824C201.441 3.66645 201.586 3.78283 201.668 3.93706C201.753 4.09707 201.746 4.25258 201.716 4.36778M201.254 3.57824C201.261 3.58226 201.269 3.58653 201.276 3.59107L201.114 3.85568M201.114 3.85568L201.716 4.36778M201.716 4.36778C201.717 4.3637 201.718 4.35972 201.719 4.35586L201.414 4.29397L201.714 4.37524C201.715 4.37277 201.716 4.37029 201.716 4.36778ZM201.716 4.36778C201.694 4.463 201.623 4.61602 201.46 4.74877C201.285 4.89136 201.025 4.9935 200.654 5.00166M201.716 4.36778L200.646 4.69112M200.654 5.00166C200.654 5.00165 200.654 5.00164 200.654 5.00164L200.646 4.69112M200.654 5.00166C200.653 5.00166 200.653 5.00167 200.653 5.00167L200.646 4.69112M200.654 5.00166C200.243 5.01242 197.929 4.90718 196.253 4.83094C195.768 4.80886 195.336 4.78921 195.019 4.77551M200.646 4.69112C200.25 4.70171 197.965 4.5978 196.289 4.52159C195.796 4.49918 195.356 4.47917 195.032 4.46517M195.019 4.77551C195.019 4.77552 195.019 4.77552 195.02 4.77552L195.032 4.46517M195.019 4.77551C191.578 4.63299 188.136 4.47293 184.696 4.31291C183.837 4.27298 182.979 4.23305 182.121 4.1934M195.019 4.77551C195.019 4.77551 195.019 4.7755 195.019 4.7755L195.032 4.46517M195.032 4.46517L182.121 4.1934M182.121 4.1934L182.135 3.8831L182.12 4.19339C182.12 4.19339 182.12 4.1934 182.121 4.1934ZM182.121 4.1934C167.844 3.54979 153.468 3.07056 139.16 2.90626C132.546 2.83095 125.932 2.76931 119.295 2.70769M182.121 4.1934L119.295 2.70769M8.48641 7.50533C5.71768 7.82614 2.01643 8.28667 1.51716 8.38569L1.51715 8.38565L1.51181 8.3868C1.20774 8.45269 1.0561 8.55739 0.989792 8.60832C0.822367 8.7365 0.694981 8.90885 0.689551 9.12518C0.684408 9.33009 0.791782 9.48793 0.890157 9.58914C0.929991 9.63219 1.00838 9.71288 1.14422 9.78303C1.28141 9.85388 1.46107 9.90601 1.69824 9.91827C15.0466 10.621 28.5422 10.2866 42.032 9.74126C45.5189 9.60029 49.005 9.44526 52.4881 9.29035C62.4846 8.84578 72.4564 8.4023 82.352 8.29569C128.642 7.80275 176.336 9.76086 222.258 14.0331L222.261 14.0333C222.51 14.0546 222.762 14.0132 222.968 13.9193C223.164 13.8304 223.375 13.666 223.435 13.4073C223.507 13.1309 223.366 12.8966 223.196 12.7548C223.024 12.6118 222.788 12.5251 222.538 12.5035C176.516 8.22258 128.723 6.25676 82.323 6.75678C72.4259 6.86301 62.4503 7.30713 52.4628 7.75177C49.8888 7.86636 47.314 7.98099 44.7396 8.08988C33.7127 8.55627 22.6891 8.91756 11.7448 8.72182C13.5259 8.5536 15.3155 8.41269 17.107 8.27164C18.7961 8.13865 20.4868 8.00553 22.1737 7.84926L8.48641 7.50533ZM119.295 2.70769C100.746 3.10481 82.3402 3.95372 64.701 4.93965L64.7008 4.93966C50.4818 5.7272 36.2838 6.5487 22.1738 7.84925L119.295 2.70769Z" fill="#2F3849" stroke="#2F3849" stroke-width="0.621243"/>
</svg>
