<svg width="32" height="32" viewBox="0 0 32 32" fill="none" xmlns="http://www.w3.org/2000/svg">
<path d="M23.875 14.375V25.75H7.625V23.3858C7.625 21.847 8.49437 20.4403 9.8707 19.7522L12.7776 18.2987C13.1825 18.0963 13.523 17.7851 13.761 17.4C13.9989 17.0149 14.125 16.5712 14.125 16.1185V13.5625L13.0014 14.1243C12.8441 14.2029 12.7057 14.3146 12.5957 14.4518C12.4857 14.5889 12.4067 14.7482 12.3641 14.9188L11.7631 17.3226C11.7397 17.4162 11.6944 17.5029 11.631 17.5756C11.5675 17.6482 11.4878 17.7048 11.3982 17.7406L9.89502 18.3419C9.81946 18.3721 9.7386 18.3869 9.65722 18.3854C9.57585 18.3838 9.49561 18.366 9.42123 18.3329L6.36187 16.9733C6.25415 16.9254 6.16264 16.8474 6.09841 16.7485C6.03418 16.6497 6 16.5343 6 16.4165V8.37982C6 8.05659 6.12843 7.74657 6.35699 7.51801L6.8125 7.0625L6.09085 5.6192C6.03109 5.49972 5.99999 5.36796 6 5.23438C6 4.89785 6.27285 4.625 6.60938 4.625H14.125C19.5098 4.625 23.875 8.99021 23.875 14.375ZM24.8906 26.5625H6.60938C6.27285 26.5625 6 26.8353 6 27.1719V28.3906C6 28.7272 6.27285 29 6.60938 29H24.8906C25.2272 29 25.5 28.7272 25.5 28.3906V27.1719C25.5 26.8353 25.2272 26.5625 24.8906 26.5625ZM8.64062 9.5C8.0797 9.5 7.625 9.9547 7.625 10.5156C7.625 11.0766 8.0797 11.5312 8.64062 11.5312C9.20155 11.5312 9.65625 11.0766 9.65625 10.5156C9.65625 9.9547 9.20155 9.5 8.64062 9.5Z" fill="#2F3849"/>
</svg>
