<svg width="32" height="32" viewBox="0 0 32 32" fill="none" xmlns="http://www.w3.org/2000/svg">
<path d="M21.4062 25.75H10.8438C10.8438 25.75 13.8906 23.5795 13.8906 16.8125H12.2656C11.9291 16.8125 11.6562 16.5397 11.6562 16.2031V14.9844C11.6562 14.6478 11.9291 14.375 12.2656 14.375H14.3075C12.8608 13.6925 11.8594 12.2213 11.8594 10.5156C11.8594 8.15978 13.7692 6.25 16.125 6.25C18.4808 6.25 20.3906 8.15978 20.3906 10.5156C20.3906 12.2213 19.3892 13.6925 17.9425 14.375H19.9844C20.3209 14.375 20.5938 14.6478 20.5938 14.9844V16.2031C20.5938 16.5397 20.3209 16.8125 19.9844 16.8125H18.3594C18.3594 23.5795 21.4062 25.75 21.4062 25.75ZM22.8281 26.5625H9.42188C9.08535 26.5625 8.8125 26.8353 8.8125 27.1719V28.3906C8.8125 28.7272 9.08535 29 9.42188 29H22.8281C23.1647 29 23.4375 28.7272 23.4375 28.3906V27.1719C23.4375 26.8353 23.1647 26.5625 22.8281 26.5625Z" fill="#2F3849"/>
</svg>
