<svg width="32" height="32" viewBox="0 0 32 32" fill="none" xmlns="http://www.w3.org/2000/svg">
<path d="M25.1406 29H6.85932C6.5228 29 6.24995 28.7272 6.24995 28.3906V27.1719C6.24995 26.8353 6.5228 26.5625 6.85932 26.5625H25.1406C25.4771 26.5625 25.75 26.8353 25.75 27.1719V28.3906C25.75 28.7272 25.4771 29 25.1406 29ZM15.9786 3C14.408 3 13.1348 4.27319 13.1348 5.84375C13.1348 7.41431 14.408 8.6875 15.9786 8.6875C17.5491 8.6875 18.8223 7.41431 18.8223 5.84375C18.8223 4.27319 17.5491 3 15.9786 3ZM26.3668 10.8525C26.0739 10.6979 25.7109 10.8052 25.5501 11.0947C25.1126 11.8827 24.395 13.0143 23.3125 13.0143C21.8543 13.0143 21.7573 12.0086 21.7034 10.0923C21.6941 9.76259 21.424 9.49995 21.0943 9.49995H19.0119C18.7491 9.49995 18.5166 9.66895 18.4336 9.91829C17.9822 11.2746 17.1096 11.9999 16 11.9999C14.8903 11.9999 14.0178 11.2746 13.5663 9.91829C13.4833 9.66895 13.2508 9.49995 12.988 9.49995H10.9057C10.5759 9.49995 10.3058 9.76269 10.2966 10.0924C10.2431 12.0039 10.1476 13.0143 8.6874 13.0143C7.63668 13.0143 6.97013 11.9873 6.43144 11.0834C6.26559 10.8051 5.91053 10.706 5.62407 10.8572L3.63451 11.9073C3.50074 11.9779 3.39801 12.0958 3.34629 12.2379C3.29458 12.3801 3.29758 12.5364 3.35471 12.6764L8.68745 25.75H23.3125L28.6452 12.6765C28.7023 12.5364 28.7053 12.3801 28.6536 12.238C28.6019 12.0958 28.4992 11.978 28.3654 11.9074L26.3668 10.8525Z" fill="#2F3849"/>
</svg>
