<svg width="32" height="32" viewBox="0 0 32 32" fill="none" xmlns="http://www.w3.org/2000/svg">
<path d="M10.1255 13.9193C10.1111 16.1483 9.93103 20.6757 8.4375 25.75H23.0616C21.5686 20.692 21.3891 16.1568 21.3746 13.9192L23.681 11.7706C23.7422 11.7136 23.791 11.6445 23.8244 11.5678C23.8577 11.4911 23.875 11.4084 23.8749 11.3247V5.23438C23.8749 4.89785 23.6021 4.625 23.2656 4.625H21.2343C20.8978 4.625 20.6249 4.89785 20.6249 5.23438V7.46875H18.1874V5.23438C18.1874 4.89785 17.9146 4.625 17.5781 4.625H13.9218C13.5853 4.625 13.3124 4.89785 13.3124 5.23438V7.46875H10.875V5.23438C10.875 4.89785 10.6022 4.625 10.2656 4.625H8.23438C7.89785 4.625 7.625 4.89785 7.625 5.23438V11.3247C7.625 11.4938 7.69528 11.6553 7.81898 11.7705L10.1255 13.9193ZM14.125 16C14.125 15.1025 14.8525 14.375 15.75 14.375C16.6475 14.375 17.375 15.1025 17.375 16V19.2502H14.125V16ZM25.5 27.1719V28.3906C25.5 28.7272 25.2272 29 24.8906 29H6.60938C6.27285 29 6 28.7272 6 28.3906V27.1719C6 26.8353 6.27285 26.5625 6.60938 26.5625H24.8906C25.2272 26.5625 25.5 26.8353 25.5 27.1719Z" fill="#2F3849"/>
</svg>
