<svg width="32" height="32" viewBox="0 0 32 32" fill="none" xmlns="http://www.w3.org/2000/svg">
<mask id="path-1-outside-1" maskUnits="userSpaceOnUse" x="6" y="1" width="21" height="30" fill="black">
<rect fill="white" x="6" y="1" width="21" height="30"/>
<path d="M14.2541 6.95489C13.4523 6.68316 12.875 5.92485 12.875 5.03125C12.875 3.90944 13.7844 3 14.9062 3H17.3334C18.4552 3 19.3646 3.90944 19.3646 5.03125C19.3646 5.922 18.7911 6.67829 17.9933 6.95225C19.2117 7.79812 20.4601 9.3308 21.4821 11.1189L15.3597 17.2412C15.3025 17.2984 15.2704 17.3759 15.2704 17.4567C15.2704 17.5375 15.3025 17.615 15.3597 17.6721L16.0778 18.3903C16.135 18.4474 16.2125 18.4795 16.2933 18.4795C16.3741 18.4795 16.4516 18.4474 16.5087 18.3903L22.2645 12.6345C23.1662 14.5793 23.7559 16.6687 23.7559 18.4374C23.7559 21.1688 22.5932 22.2861 20.788 22.8063V25.75H11.462V22.8062C9.65704 22.2859 8.49456 21.1686 8.49456 18.4375C8.49456 14.4751 11.4541 8.90251 14.2541 6.95489ZM24.25 28.3906V27.1719C24.25 26.8353 23.9772 26.5625 23.6406 26.5625H8.60938C8.27285 26.5625 8 26.8353 8 27.1719V28.3906C8 28.7272 8.27285 29 8.60938 29H23.6406C23.9772 29 24.25 28.7272 24.25 28.3906Z"/>
</mask>
<path d="M14.2541 6.95489C13.4523 6.68316 12.875 5.92485 12.875 5.03125C12.875 3.90944 13.7844 3 14.9062 3H17.3334C18.4552 3 19.3646 3.90944 19.3646 5.03125C19.3646 5.922 18.7911 6.67829 17.9933 6.95225C19.2117 7.79812 20.4601 9.3308 21.4821 11.1189L15.3597 17.2412C15.3025 17.2984 15.2704 17.3759 15.2704 17.4567C15.2704 17.5375 15.3025 17.615 15.3597 17.6721L16.0778 18.3903C16.135 18.4474 16.2125 18.4795 16.2933 18.4795C16.3741 18.4795 16.4516 18.4474 16.5087 18.3903L22.2645 12.6345C23.1662 14.5793 23.7559 16.6687 23.7559 18.4374C23.7559 21.1688 22.5932 22.2861 20.788 22.8063V25.75H11.462V22.8062C9.65704 22.2859 8.49456 21.1686 8.49456 18.4375C8.49456 14.4751 11.4541 8.90251 14.2541 6.95489ZM24.25 28.3906V27.1719C24.25 26.8353 23.9772 26.5625 23.6406 26.5625H8.60938C8.27285 26.5625 8 26.8353 8 27.1719V28.3906C8 28.7272 8.27285 29 8.60938 29H23.6406C23.9772 29 24.25 28.7272 24.25 28.3906Z" fill="white"/>
<path d="M14.2541 6.95489C13.4523 6.68316 12.875 5.92485 12.875 5.03125C12.875 3.90944 13.7844 3 14.9062 3H17.3334C18.4552 3 19.3646 3.90944 19.3646 5.03125C19.3646 5.922 18.7911 6.67829 17.9933 6.95225C19.2117 7.79812 20.4601 9.3308 21.4821 11.1189L15.3597 17.2412C15.3025 17.2984 15.2704 17.3759 15.2704 17.4567C15.2704 17.5375 15.3025 17.615 15.3597 17.6721L16.0778 18.3903C16.135 18.4474 16.2125 18.4795 16.2933 18.4795C16.3741 18.4795 16.4516 18.4474 16.5087 18.3903L22.2645 12.6345C23.1662 14.5793 23.7559 16.6687 23.7559 18.4374C23.7559 21.1688 22.5932 22.2861 20.788 22.8063V25.75H11.462V22.8062C9.65704 22.2859 8.49456 21.1686 8.49456 18.4375C8.49456 14.4751 11.4541 8.90251 14.2541 6.95489ZM24.25 28.3906V27.1719C24.25 26.8353 23.9772 26.5625 23.6406 26.5625H8.60938C8.27285 26.5625 8 26.8353 8 27.1719V28.3906C8 28.7272 8.27285 29 8.60938 29H23.6406C23.9772 29 24.25 28.7272 24.25 28.3906Z" stroke="#2F3849" stroke-width="4" mask="url(#path-1-outside-1)"/>
</svg>
