<svg width="32" height="32" viewBox="0 0 32 32" fill="none" xmlns="http://www.w3.org/2000/svg">
<mask id="path-1-outside-1" maskUnits="userSpaceOnUse" x="2" y="1" width="28" height="30" fill="black">
<rect fill="white" x="2" y="1" width="28" height="30"/>
<path d="M26.125 27.1719V28.3906C26.125 28.7272 25.8521 29 25.5156 29H7.23437C6.89784 29 6.62499 28.7272 6.62499 28.3906V27.1719C6.62499 26.8353 6.89784 26.5625 7.23437 26.5625H25.5156C25.8521 26.5625 26.125 26.8353 26.125 27.1719ZM25.7171 10.7188H17.5937V8.28125H20.1328C20.2136 8.28125 20.2911 8.24915 20.3483 8.19201C20.4054 8.13487 20.4375 8.05737 20.4375 7.97656V6.14844C20.4375 6.06763 20.4054 5.99013 20.3483 5.93299C20.2911 5.87585 20.2136 5.84375 20.1328 5.84375H17.5937V3.30469C17.5937 3.22388 17.5616 3.14638 17.5045 3.08924C17.4474 3.0321 17.3699 3 17.2891 3H15.4609C15.3801 3 15.3026 3.0321 15.2455 3.08924C15.1883 3.14638 15.1562 3.22388 15.1562 3.30469V5.84375H12.6172C12.5364 5.84375 12.4589 5.87585 12.4017 5.93299C12.3446 5.99013 12.3125 6.06763 12.3125 6.14844V7.97656C12.3125 8.05737 12.3446 8.13487 12.4017 8.19201C12.4589 8.24915 12.5364 8.28125 12.6172 8.28125H15.1562V10.7188H7.03292C5.63268 10.7188 4.65234 12.1022 5.11654 13.4233L9.44752 25.75H23.3025L27.6334 13.4233C28.0976 12.1022 27.1173 10.7188 25.7171 10.7188Z"/>
</mask>
<path d="M26.125 27.1719V28.3906C26.125 28.7272 25.8521 29 25.5156 29H7.23437C6.89784 29 6.62499 28.7272 6.62499 28.3906V27.1719C6.62499 26.8353 6.89784 26.5625 7.23437 26.5625H25.5156C25.8521 26.5625 26.125 26.8353 26.125 27.1719ZM25.7171 10.7188H17.5937V8.28125H20.1328C20.2136 8.28125 20.2911 8.24915 20.3483 8.19201C20.4054 8.13487 20.4375 8.05737 20.4375 7.97656V6.14844C20.4375 6.06763 20.4054 5.99013 20.3483 5.93299C20.2911 5.87585 20.2136 5.84375 20.1328 5.84375H17.5937V3.30469C17.5937 3.22388 17.5616 3.14638 17.5045 3.08924C17.4474 3.0321 17.3699 3 17.2891 3H15.4609C15.3801 3 15.3026 3.0321 15.2455 3.08924C15.1883 3.14638 15.1562 3.22388 15.1562 3.30469V5.84375H12.6172C12.5364 5.84375 12.4589 5.87585 12.4017 5.93299C12.3446 5.99013 12.3125 6.06763 12.3125 6.14844V7.97656C12.3125 8.05737 12.3446 8.13487 12.4017 8.19201C12.4589 8.24915 12.5364 8.28125 12.6172 8.28125H15.1562V10.7188H7.03292C5.63268 10.7188 4.65234 12.1022 5.11654 13.4233L9.44752 25.75H23.3025L27.6334 13.4233C28.0976 12.1022 27.1173 10.7188 25.7171 10.7188Z" fill="white"/>
<path d="M26.125 27.1719V28.3906C26.125 28.7272 25.8521 29 25.5156 29H7.23437C6.89784 29 6.62499 28.7272 6.62499 28.3906V27.1719C6.62499 26.8353 6.89784 26.5625 7.23437 26.5625H25.5156C25.8521 26.5625 26.125 26.8353 26.125 27.1719ZM25.7171 10.7188H17.5937V8.28125H20.1328C20.2136 8.28125 20.2911 8.24915 20.3483 8.19201C20.4054 8.13487 20.4375 8.05737 20.4375 7.97656V6.14844C20.4375 6.06763 20.4054 5.99013 20.3483 5.93299C20.2911 5.87585 20.2136 5.84375 20.1328 5.84375H17.5937V3.30469C17.5937 3.22388 17.5616 3.14638 17.5045 3.08924C17.4474 3.0321 17.3699 3 17.2891 3H15.4609C15.3801 3 15.3026 3.0321 15.2455 3.08924C15.1883 3.14638 15.1562 3.22388 15.1562 3.30469V5.84375H12.6172C12.5364 5.84375 12.4589 5.87585 12.4017 5.93299C12.3446 5.99013 12.3125 6.06763 12.3125 6.14844V7.97656C12.3125 8.05737 12.3446 8.13487 12.4017 8.19201C12.4589 8.24915 12.5364 8.28125 12.6172 8.28125H15.1562V10.7188H7.03292C5.63268 10.7188 4.65234 12.1022 5.11654 13.4233L9.44752 25.75H23.3025L27.6334 13.4233C28.0976 12.1022 27.1173 10.7188 25.7171 10.7188Z" stroke="#2F3849" stroke-width="4" mask="url(#path-1-outside-1)"/>
</svg>
