<svg width="32" height="32" viewBox="0 0 32 32" fill="none" xmlns="http://www.w3.org/2000/svg">
<mask id="path-1-outside-1" maskUnits="userSpaceOnUse" x="4" y="2.625" width="24" height="29" fill="black">
<rect fill="white" x="4" y="2.625" width="24" height="29"/>
<path d="M23.875 14.375V25.75H7.625V23.3858C7.625 21.847 8.49437 20.4403 9.8707 19.7522L12.7776 18.2987C13.1825 18.0963 13.523 17.7851 13.761 17.4C13.9989 17.0149 14.125 16.5712 14.125 16.1185V13.5625L13.0014 14.1243C12.8441 14.2029 12.7057 14.3146 12.5957 14.4518C12.4857 14.5889 12.4067 14.7482 12.3641 14.9188L11.7631 17.3226C11.7397 17.4162 11.6944 17.5029 11.631 17.5756C11.5675 17.6482 11.4878 17.7048 11.3982 17.7406L9.89502 18.3419C9.81946 18.3721 9.7386 18.3869 9.65722 18.3854C9.57585 18.3838 9.49561 18.366 9.42123 18.3329L6.36187 16.9733C6.25415 16.9254 6.16264 16.8474 6.09841 16.7485C6.03418 16.6497 6 16.5343 6 16.4165V8.37982C6 8.05659 6.12843 7.74657 6.35699 7.51801L6.8125 7.0625L6.09085 5.6192C6.03109 5.49972 5.99999 5.36796 6 5.23438C6 4.89785 6.27285 4.625 6.60938 4.625H14.125C19.5098 4.625 23.875 8.99021 23.875 14.375ZM24.8906 26.5625H6.60938C6.27285 26.5625 6 26.8353 6 27.1719V28.3906C6 28.7272 6.27285 29 6.60938 29H24.8906C25.2272 29 25.5 28.7272 25.5 28.3906V27.1719C25.5 26.8353 25.2272 26.5625 24.8906 26.5625ZM8.64062 9.5C8.0797 9.5 7.625 9.9547 7.625 10.5156C7.625 11.0766 8.0797 11.5312 8.64062 11.5312C9.20155 11.5312 9.65625 11.0766 9.65625 10.5156C9.65625 9.9547 9.20155 9.5 8.64062 9.5Z"/>
</mask>
<path d="M23.875 14.375V25.75H7.625V23.3858C7.625 21.847 8.49437 20.4403 9.8707 19.7522L12.7776 18.2987C13.1825 18.0963 13.523 17.7851 13.761 17.4C13.9989 17.0149 14.125 16.5712 14.125 16.1185V13.5625L13.0014 14.1243C12.8441 14.2029 12.7057 14.3146 12.5957 14.4518C12.4857 14.5889 12.4067 14.7482 12.3641 14.9188L11.7631 17.3226C11.7397 17.4162 11.6944 17.5029 11.631 17.5756C11.5675 17.6482 11.4878 17.7048 11.3982 17.7406L9.89502 18.3419C9.81946 18.3721 9.7386 18.3869 9.65722 18.3854C9.57585 18.3838 9.49561 18.366 9.42123 18.3329L6.36187 16.9733C6.25415 16.9254 6.16264 16.8474 6.09841 16.7485C6.03418 16.6497 6 16.5343 6 16.4165V8.37982C6 8.05659 6.12843 7.74657 6.35699 7.51801L6.8125 7.0625L6.09085 5.6192C6.03109 5.49972 5.99999 5.36796 6 5.23438C6 4.89785 6.27285 4.625 6.60938 4.625H14.125C19.5098 4.625 23.875 8.99021 23.875 14.375ZM24.8906 26.5625H6.60938C6.27285 26.5625 6 26.8353 6 27.1719V28.3906C6 28.7272 6.27285 29 6.60938 29H24.8906C25.2272 29 25.5 28.7272 25.5 28.3906V27.1719C25.5 26.8353 25.2272 26.5625 24.8906 26.5625ZM8.64062 9.5C8.0797 9.5 7.625 9.9547 7.625 10.5156C7.625 11.0766 8.0797 11.5312 8.64062 11.5312C9.20155 11.5312 9.65625 11.0766 9.65625 10.5156C9.65625 9.9547 9.20155 9.5 8.64062 9.5Z" fill="white"/>
<path d="M23.875 25.75V27.75H25.875V25.75H23.875ZM7.625 25.75H5.625V27.75H7.625V25.75ZM9.8707 19.7522L10.7651 21.541L10.7651 21.541L9.8707 19.7522ZM12.7776 18.2987L11.8832 16.5099L11.8831 16.5099L12.7776 18.2987ZM14.125 16.1185H12.125V16.1185L14.125 16.1185ZM14.125 13.5625H16.125V10.3265L13.2306 11.7736L14.125 13.5625ZM13.0014 14.1243L13.8957 15.9132L13.8958 15.9132L13.0014 14.1243ZM12.3641 14.9188L14.3043 15.4039L14.3044 15.4037L12.3641 14.9188ZM11.7631 17.3226L13.7033 17.8078L13.7033 17.8077L11.7631 17.3226ZM11.3982 17.7406L12.141 19.5976L12.141 19.5976L11.3982 17.7406ZM9.89502 18.3419L9.15226 16.4849L9.15215 16.485L9.89502 18.3419ZM9.42123 18.3329L10.2336 16.5054L10.2335 16.5053L9.42123 18.3329ZM6.36187 16.9733L5.54953 18.8009L5.54964 18.801L6.36187 16.9733ZM6 16.4165L8 16.4165V16.4165H6ZM6.35699 7.51801L7.77121 8.93222H7.77121L6.35699 7.51801ZM6.8125 7.0625L8.22671 8.47671L9.24602 7.45741L8.60135 6.16807L6.8125 7.0625ZM6.09085 5.6192L7.8797 4.72477L7.87959 4.72455L6.09085 5.6192ZM6 5.23438L8 5.23458V5.23438H6ZM21.875 14.375V25.75H25.875V14.375H21.875ZM23.875 23.75H7.625V27.75H23.875V23.75ZM9.625 25.75V23.3858H5.625V25.75H9.625ZM9.625 23.3858C9.625 22.6045 10.0664 21.8904 10.7651 21.541L8.9763 17.9633C6.92237 18.9902 5.625 21.0895 5.625 23.3858H9.625ZM10.7651 21.541L13.672 20.0876L11.8831 16.5099L8.97626 17.9633L10.7651 21.541ZM13.672 20.0876C14.4091 19.719 15.029 19.1525 15.4623 18.4515L12.0597 16.3485C12.0169 16.4177 11.9558 16.4735 11.8832 16.5099L13.672 20.0876ZM15.4623 18.4515C15.8955 17.7504 16.125 16.9426 16.125 16.1185L12.125 16.1185C12.125 16.1998 12.1024 16.2794 12.0597 16.3485L15.4623 18.4515ZM16.125 16.1185V13.5625H12.125V16.1185H16.125ZM13.2306 11.7736L12.107 12.3354L13.8958 15.9132L15.0194 15.3514L13.2306 11.7736ZM12.1071 12.3354C11.6917 12.543 11.3262 12.8381 11.0356 13.2003L14.1558 15.7032C14.0853 15.7912 13.9965 15.8628 13.8957 15.9132L12.1071 12.3354ZM11.0356 13.2003C10.7451 13.5625 10.5363 13.9833 10.4237 14.4338L14.3044 15.4037C14.277 15.5131 14.2264 15.6153 14.1558 15.7032L11.0356 13.2003ZM10.4238 14.4337L9.82278 16.8376L13.7033 17.8077L14.3043 15.4039L10.4238 14.4337ZM9.82279 16.8375C9.87618 16.624 9.9795 16.4262 10.1243 16.2603L13.1377 18.8908C13.4093 18.5796 13.6031 18.2085 13.7033 17.8078L9.82279 16.8375ZM10.1243 16.2603C10.269 16.0945 10.451 15.9654 10.6554 15.8837L12.141 19.5976C12.5245 19.4442 12.8661 19.202 13.1377 18.8908L10.1243 16.2603ZM10.6554 15.8837L9.15226 16.4849L10.6378 20.1988L12.141 19.5976L10.6554 15.8837ZM9.15215 16.485C9.32464 16.416 9.5092 16.3822 9.69495 16.3857L9.6195 20.385C9.968 20.3916 10.3143 20.3283 10.6379 20.1988L9.15215 16.485ZM9.69495 16.3857C9.88069 16.3892 10.0638 16.4299 10.2336 16.5054L8.60885 20.1605C8.92737 20.3021 9.27101 20.3784 9.6195 20.385L9.69495 16.3857ZM10.2335 16.5053L7.17409 15.1457L5.54964 18.801L8.60901 20.1606L10.2335 16.5053ZM7.1742 15.1457C7.42 15.255 7.62885 15.4332 7.77543 15.6587L4.42139 17.8383C4.69642 18.2615 5.0883 18.5959 5.54953 18.8009L7.1742 15.1457ZM7.77543 15.6587C7.922 15.8843 8.00001 16.1475 8 16.4165L4 16.4164C3.99998 16.9211 4.14636 17.4151 4.42139 17.8383L7.77543 15.6587ZM8 16.4165V8.37982H4V16.4165H8ZM8 8.37982C8 8.58709 7.91767 8.78576 7.77121 8.93222L4.94278 6.10379C4.33919 6.70739 4 7.5261 4 8.37982H8ZM7.77121 8.93222L8.22671 8.47671L5.39829 5.64829L4.94278 6.10379L7.77121 8.93222ZM8.60135 6.16807L7.8797 4.72477L4.30199 6.51362L5.02365 7.95693L8.60135 6.16807ZM7.87959 4.72455C7.95879 4.8829 8.00002 5.05753 8 5.23458L4 5.23417C3.99995 5.6784 4.10339 6.11653 4.3021 6.51384L7.87959 4.72455ZM8 5.23438C8 6.00242 7.37742 6.625 6.60938 6.625V2.625C5.16828 2.625 4 3.79328 4 5.23438H8ZM6.60938 6.625H14.125V2.625H6.60938V6.625ZM14.125 6.625C18.4052 6.625 21.875 10.0948 21.875 14.375H25.875C25.875 7.88564 20.6144 2.625 14.125 2.625V6.625ZM24.8906 24.5625H6.60938V28.5625H24.8906V24.5625ZM6.60938 24.5625C5.16828 24.5625 4 25.7308 4 27.1719H8C8 27.9399 7.37742 28.5625 6.60938 28.5625V24.5625ZM4 27.1719V28.3906H8V27.1719H4ZM4 28.3906C4 29.8317 5.16828 31 6.60938 31V27C7.37742 27 8 27.6226 8 28.3906H4ZM6.60938 31H24.8906V27H6.60938V31ZM24.8906 31C26.3317 31 27.5 29.8317 27.5 28.3906H23.5C23.5 27.6226 24.1226 27 24.8906 27V31ZM27.5 28.3906V27.1719H23.5V28.3906H27.5ZM27.5 27.1719C27.5 25.7308 26.3317 24.5625 24.8906 24.5625V28.5625C24.1226 28.5625 23.5 27.9399 23.5 27.1719H27.5ZM8.64062 7.5C6.97513 7.5 5.625 8.85013 5.625 10.5156H9.625C9.625 11.0593 9.18426 11.5 8.64062 11.5V7.5ZM5.625 10.5156C5.625 12.1811 6.97513 13.5312 8.64062 13.5312V9.53125C9.18426 9.53125 9.625 9.97199 9.625 10.5156H5.625ZM8.64062 13.5312C10.3061 13.5312 11.6562 12.1811 11.6562 10.5156H7.65625C7.65625 9.97199 8.09699 9.53125 8.64062 9.53125V13.5312ZM11.6562 10.5156C11.6562 8.85013 10.3061 7.5 8.64062 7.5V11.5C8.09699 11.5 7.65625 11.0593 7.65625 10.5156H11.6562Z" fill="#2F3849" mask="url(#path-1-outside-1)"/>
</svg>
