<svg width="32" height="32" viewBox="0 0 32 32" fill="none" xmlns="http://www.w3.org/2000/svg">
<path d="M7.91341 26.6097L7.7165 26.75H7.86836C7.83194 26.8845 7.8125 27.0259 7.8125 27.1719V28.3906C7.8125 29.2794 8.53306 30 9.42188 30H22.8281C23.7169 30 24.4375 29.2794 24.4375 28.3906V27.1719C24.4375 27.0259 24.4181 26.8845 24.3816 26.75H24.5335L24.3366 26.6097C24.1129 26.0097 23.5414 25.579 22.8672 25.563L21.9942 24.941C21.9932 24.9403 21.9918 24.9392 21.9902 24.9379C21.9807 24.9304 21.9608 24.9145 21.9321 24.8895C21.8747 24.8395 21.7818 24.7533 21.6647 24.6266C21.4309 24.3734 21.0988 23.9564 20.7596 23.3379C20.1567 22.239 19.5145 20.474 19.3835 17.8125H19.9844C20.8732 17.8125 21.5938 17.0919 21.5938 16.2031V14.9844C21.5938 14.2732 21.1324 13.6697 20.4926 13.4569C21.0593 12.6176 21.3906 11.6057 21.3906 10.5156C21.3906 7.6075 19.0331 5.25 16.125 5.25C13.2169 5.25 10.8594 7.6075 10.8594 10.5156C10.8594 11.6057 11.1907 12.6176 11.7574 13.4569C11.1176 13.6697 10.6562 14.2732 10.6562 14.9844V16.2031C10.6562 17.0919 11.3768 17.8125 12.2656 17.8125H12.8665C12.7355 20.474 12.0933 22.239 11.4904 23.3379C11.1512 23.9564 10.8191 24.3734 10.5853 24.6266C10.4682 24.7533 10.3753 24.8395 10.3179 24.8895C10.2892 24.9145 10.2693 24.9304 10.2598 24.9379C10.2584 24.9391 10.2571 24.94 10.2562 24.9408C10.256 24.9409 10.2559 24.9409 10.2558 24.941L9.38279 25.563C8.70864 25.579 8.13713 26.0097 7.91341 26.6097Z" fill="white" stroke="#2F3849" stroke-width="2"/>
</svg>
