<svg width="32" height="32" viewBox="0 0 32 32" fill="none" xmlns="http://www.w3.org/2000/svg">
<mask id="path-1-outside-1" maskUnits="userSpaceOnUse" x="1.30957" y="1" width="30" height="30" fill="black">
<rect fill="white" x="1.30957" y="1" width="30" height="30"/>
<path d="M25.1406 29H6.85932C6.5228 29 6.24995 28.7272 6.24995 28.3906V27.1719C6.24995 26.8353 6.5228 26.5625 6.85932 26.5625H25.1406C25.4771 26.5625 25.75 26.8353 25.75 27.1719V28.3906C25.75 28.7272 25.4771 29 25.1406 29ZM15.9786 3C14.408 3 13.1348 4.27319 13.1348 5.84375C13.1348 7.41431 14.408 8.6875 15.9786 8.6875C17.5491 8.6875 18.8223 7.41431 18.8223 5.84375C18.8223 4.27319 17.5491 3 15.9786 3ZM26.3668 10.8525C26.0739 10.6979 25.7109 10.8052 25.5501 11.0947C25.1126 11.8827 24.395 13.0143 23.3125 13.0143C21.8543 13.0143 21.7573 12.0086 21.7034 10.0923C21.6941 9.76259 21.424 9.49995 21.0943 9.49995H19.0119C18.7491 9.49995 18.5166 9.66895 18.4336 9.91829C17.9822 11.2746 17.1096 11.9999 16 11.9999C14.8903 11.9999 14.0178 11.2746 13.5663 9.91829C13.4833 9.66895 13.2508 9.49995 12.988 9.49995H10.9057C10.5759 9.49995 10.3058 9.76269 10.2966 10.0924C10.2431 12.0039 10.1476 13.0143 8.6874 13.0143C7.63668 13.0143 6.97013 11.9873 6.43144 11.0834C6.26559 10.8051 5.91053 10.706 5.62407 10.8572L3.63451 11.9073C3.50074 11.9779 3.39801 12.0958 3.34629 12.2379C3.29458 12.3801 3.29758 12.5364 3.35471 12.6764L8.68745 25.75H23.3125L28.6452 12.6765C28.7023 12.5364 28.7053 12.3801 28.6536 12.238C28.6019 12.0958 28.4992 11.978 28.3654 11.9074L26.3668 10.8525Z"/>
</mask>
<path d="M25.1406 29H6.85932C6.5228 29 6.24995 28.7272 6.24995 28.3906V27.1719C6.24995 26.8353 6.5228 26.5625 6.85932 26.5625H25.1406C25.4771 26.5625 25.75 26.8353 25.75 27.1719V28.3906C25.75 28.7272 25.4771 29 25.1406 29ZM15.9786 3C14.408 3 13.1348 4.27319 13.1348 5.84375C13.1348 7.41431 14.408 8.6875 15.9786 8.6875C17.5491 8.6875 18.8223 7.41431 18.8223 5.84375C18.8223 4.27319 17.5491 3 15.9786 3ZM26.3668 10.8525C26.0739 10.6979 25.7109 10.8052 25.5501 11.0947C25.1126 11.8827 24.395 13.0143 23.3125 13.0143C21.8543 13.0143 21.7573 12.0086 21.7034 10.0923C21.6941 9.76259 21.424 9.49995 21.0943 9.49995H19.0119C18.7491 9.49995 18.5166 9.66895 18.4336 9.91829C17.9822 11.2746 17.1096 11.9999 16 11.9999C14.8903 11.9999 14.0178 11.2746 13.5663 9.91829C13.4833 9.66895 13.2508 9.49995 12.988 9.49995H10.9057C10.5759 9.49995 10.3058 9.76269 10.2966 10.0924C10.2431 12.0039 10.1476 13.0143 8.6874 13.0143C7.63668 13.0143 6.97013 11.9873 6.43144 11.0834C6.26559 10.8051 5.91053 10.706 5.62407 10.8572L3.63451 11.9073C3.50074 11.9779 3.39801 12.0958 3.34629 12.2379C3.29458 12.3801 3.29758 12.5364 3.35471 12.6764L8.68745 25.75H23.3125L28.6452 12.6765C28.7023 12.5364 28.7053 12.3801 28.6536 12.238C28.6019 12.0958 28.4992 11.978 28.3654 11.9074L26.3668 10.8525Z" fill="white"/>
<path d="M25.5501 11.0947L27.2986 12.0657L27.2987 12.0656L25.5501 11.0947ZM21.7034 10.0923L23.7026 10.0361L23.7026 10.0359L21.7034 10.0923ZM18.4336 9.91829L20.3313 10.5499L20.3313 10.5498L18.4336 9.91829ZM13.5663 9.91829L11.6686 10.5498L11.6686 10.55L13.5663 9.91829ZM10.2966 10.0924L8.29734 10.0364L8.29734 10.0365L10.2966 10.0924ZM6.43144 11.0834L8.14951 10.0595L8.14946 10.0594L6.43144 11.0834ZM5.62407 10.8572L6.55763 12.626L6.55779 12.6259L5.62407 10.8572ZM3.63451 11.9073L4.56804 13.6761L4.56807 13.6761L3.63451 11.9073ZM3.35471 12.6764L5.20657 11.921L5.20656 11.921L3.35471 12.6764ZM8.68745 25.75L6.83559 26.5054L7.34327 27.75H8.68745V25.75ZM23.3125 25.75V27.75H24.6566L25.1643 26.5054L23.3125 25.75ZM28.6452 12.6765L26.7933 11.9211L26.7933 11.9211L28.6452 12.6765ZM28.3654 11.9074L27.4318 13.6761L27.4319 13.6762L28.3654 11.9074ZM25.1406 27H6.85932V31H25.1406V27ZM6.85932 27C7.62737 27 8.24995 27.6226 8.24995 28.3906H4.24995C4.24995 29.8317 5.41823 31 6.85932 31V27ZM8.24995 28.3906V27.1719H4.24995V28.3906H8.24995ZM8.24995 27.1719C8.24995 27.9399 7.62737 28.5625 6.85932 28.5625V24.5625C5.41823 24.5625 4.24995 25.7308 4.24995 27.1719H8.24995ZM6.85932 28.5625H25.1406V24.5625H6.85932V28.5625ZM25.1406 28.5625C24.3725 28.5625 23.75 27.9399 23.75 27.1719H27.75C27.75 25.7308 26.5817 24.5625 25.1406 24.5625V28.5625ZM23.75 27.1719V28.3906H27.75V27.1719H23.75ZM23.75 28.3906C23.75 27.6226 24.3725 27 25.1406 27V31C26.5817 31 27.75 29.8317 27.75 28.3906H23.75ZM15.9786 1C13.3034 1 11.1348 3.16862 11.1348 5.84375H15.1348C15.1348 5.37776 15.5126 5 15.9786 5V1ZM11.1348 5.84375C11.1348 8.51888 13.3034 10.6875 15.9786 10.6875V6.6875C15.5126 6.6875 15.1348 6.30974 15.1348 5.84375H11.1348ZM15.9786 10.6875C18.6537 10.6875 20.8223 8.51888 20.8223 5.84375H16.8223C16.8223 6.30974 16.4446 6.6875 15.9786 6.6875V10.6875ZM20.8223 5.84375C20.8223 3.16862 18.6537 1 15.9786 1V5C16.4446 5 16.8223 5.37776 16.8223 5.84375H20.8223ZM27.3005 9.08384C26.0488 8.42305 24.4925 8.8796 23.8016 10.1239L27.2987 12.0656C26.9293 12.7308 26.099 12.9727 25.4331 12.6212L27.3005 9.08384ZM23.8016 10.1238C23.5964 10.4934 23.4122 10.7772 23.2365 10.9586C23.0646 11.1361 23.0996 11.0143 23.3125 11.0143V15.0143C24.6078 15.0143 25.5429 14.3267 26.1098 13.7414C26.6729 13.16 27.0663 12.484 27.2986 12.0657L23.8016 10.1238ZM23.3125 11.0143C23.1618 11.0143 23.2647 10.9861 23.4541 11.0955C23.6783 11.2251 23.7861 11.4069 23.8157 11.4751C23.8266 11.5002 23.7917 11.426 23.7608 11.1416C23.7311 10.8672 23.7162 10.5191 23.7026 10.0361L19.7042 10.1485C19.7175 10.6236 19.735 11.1198 19.7842 11.573C19.8322 12.0162 19.9228 12.5527 20.1469 13.0688C20.3898 13.628 20.7987 14.1809 21.4529 14.5589C22.0723 14.9168 22.734 15.0143 23.3125 15.0143V11.0143ZM23.7026 10.0359C23.6628 8.6245 22.5071 7.49995 21.0943 7.49995V11.4999C20.341 11.4999 19.7254 10.9007 19.7042 10.1486L23.7026 10.0359ZM21.0943 7.49995H19.0119V11.4999H21.0943V7.49995ZM19.0119 7.49995C17.8809 7.49995 16.8887 8.22691 16.536 9.28676L20.3313 10.5498C20.1446 11.111 19.6173 11.4999 19.0119 11.4999V7.49995ZM16.536 9.28666C16.3954 9.70921 16.2381 9.88463 16.1692 9.94307C16.1232 9.98211 16.0883 9.99991 16 9.99991V13.9999C18.2165 13.9999 19.6945 12.4631 20.3313 10.5499L16.536 9.28666ZM16 9.99991C15.9116 9.99991 15.8767 9.98212 15.8307 9.94308C15.7619 9.88464 15.6046 9.70919 15.4639 9.2866L11.6686 10.55C12.3055 12.4631 13.7834 13.9999 16 13.9999V9.99991ZM15.4639 9.28676C15.1112 8.22691 14.119 7.49995 12.988 7.49995V11.4999C12.3826 11.4999 11.8553 11.111 11.6686 10.5498L15.4639 9.28676ZM12.988 7.49995H10.9057V11.4999H12.988V7.49995ZM10.9057 7.49995C9.49239 7.49995 8.3369 8.62505 8.29734 10.0364L12.2958 10.1485C12.2747 10.9003 11.6593 11.4999 10.9057 11.4999V7.49995ZM8.29734 10.0365C8.28386 10.5186 8.26914 10.8662 8.2395 11.1405C8.20879 11.4246 8.17387 11.4992 8.18452 11.4747C8.21379 11.4072 8.32105 11.2256 8.54499 11.0959C8.7345 10.9861 8.83761 11.0143 8.6874 11.0143V15.0143C9.26727 15.0143 9.92989 14.9162 10.5497 14.5573C11.2039 14.1784 11.6121 13.6247 11.8545 13.0657C12.0782 12.5496 12.1685 12.0132 12.2163 11.5703C12.2653 11.1175 12.2825 10.622 12.2958 10.1483L8.29734 10.0365ZM8.6874 11.0143C8.88629 11.0143 8.93807 11.1319 8.79012 10.9822C8.71555 10.9067 8.62222 10.7933 8.50783 10.628C8.39359 10.463 8.27939 10.2775 8.14951 10.0595L4.71337 12.1072C4.97695 12.5495 5.38782 13.2299 5.9447 13.7935C6.52738 14.3832 7.4378 15.0143 8.6874 15.0143V11.0143ZM8.14946 10.0594C7.43679 8.86365 5.91478 8.44217 4.69036 9.08857L6.55779 12.6259C5.90628 12.9698 5.0944 12.7465 4.71342 12.1073L8.14946 10.0594ZM4.69051 9.08848L2.70095 10.1386L4.56807 13.6761L6.55763 12.626L4.69051 9.08848ZM2.70099 10.1386C2.12817 10.4409 1.68826 10.9455 1.46681 11.5541L5.22577 12.9217C5.10775 13.2461 4.87331 13.515 4.56804 13.6761L2.70099 10.1386ZM1.46681 11.5541C1.24537 12.1628 1.25821 12.8321 1.50285 13.4318L5.20656 11.921C5.33694 12.2406 5.34379 12.5973 5.22577 12.9217L1.46681 11.5541ZM1.50284 13.4318L6.83559 26.5054L10.5393 24.9946L5.20657 11.921L1.50284 13.4318ZM8.68745 27.75H23.3125V23.75H8.68745V27.75ZM25.1643 26.5054L30.4971 13.4319L26.7933 11.9211L21.4606 24.9946L25.1643 26.5054ZM30.497 13.4319C30.7417 12.8321 30.7545 12.1628 30.5331 11.5542L26.7741 12.9218C26.6561 12.5974 26.663 12.2407 26.7933 11.9211L30.497 13.4319ZM30.5331 11.5542C30.3116 10.9455 29.8717 10.4409 29.2989 10.1386L27.4319 13.6762C27.1266 13.515 26.8921 13.2461 26.7741 12.9218L30.5331 11.5542ZM29.2989 10.1386L27.3004 9.08376L25.4332 12.6213L27.4318 13.6761L29.2989 10.1386Z" fill="#2F3849" mask="url(#path-1-outside-1)"/>
</svg>
