<svg width="32" height="32" viewBox="0 0 32 32" fill="none" xmlns="http://www.w3.org/2000/svg">
<path d="M7.47819 25.4676L7.45027 25.5625H6.60938C5.72056 25.5625 5 26.2831 5 27.1719V28.3906C5 29.2794 5.72056 30 6.60938 30H24.8906C25.7794 30 26.5 29.2794 26.5 28.3906V27.1719C26.5 26.2831 25.7794 25.5625 24.8906 25.5625H24.0489L24.0207 25.4669C22.6563 20.8447 22.4158 16.6622 22.3794 14.3499L24.3626 12.5023C24.3626 12.5023 24.3626 12.5023 24.3626 12.5023C24.5243 12.3517 24.6532 12.1694 24.7413 11.9668L24.7413 11.9668C24.8295 11.7642 24.875 11.5457 24.8749 11.3247C24.8749 11.3247 24.8749 11.3247 24.8749 11.3246V5.23438C24.8749 4.34556 24.1544 3.625 23.2656 3.625H21.2343C20.3455 3.625 19.6249 4.34556 19.6249 5.23438V6.46875H19.1874V5.23438C19.1874 4.34556 18.4669 3.625 17.5781 3.625H13.9218C13.033 3.625 12.3124 4.34556 12.3124 5.23438V6.46875H11.875V5.23438C11.875 4.34556 11.1544 3.625 10.2656 3.625H8.23438C7.34556 3.625 6.625 4.34556 6.625 5.23438V11.3247C6.625 11.7713 6.81064 12.1978 7.13724 12.5021L7.13734 12.5022L9.12068 14.3499C9.08416 16.6543 8.84303 20.8306 7.47819 25.4676ZM15.125 16C15.125 15.6548 15.4048 15.375 15.75 15.375C16.0952 15.375 16.375 15.6548 16.375 16V18.2502H15.125V16Z" fill="white" stroke="#2F3849" stroke-width="2"/>
</svg>
